<svg width="16" height="16" viewBox="0 0 16 16" fill="none" xmlns="http://www.w3.org/2000/svg">
<g clip-path="url(#clip0_3582_22735)">
<path d="M5.33301 12.3334L13.333 6L14.1675 6.14909L5.35079 13.2702L1.33301 11.6667L1.99967 11L5.33301 12.3334Z" fill="#00FF40" fill-opacity="0.5"/>
<path d="M5.33301 13.6666L13.333 7.33325L14.1675 7.48234L5.35079 14.6035L1.33301 13L1.99967 12.3333L5.33301 13.6666Z" fill="#00FF40" fill-opacity="0.5"/>
<path d="M10.168 3.96021C10.3129 4.05483 10.5009 4.16911 10.7275 4.28149C11.2777 4.5543 12.0675 4.83325 13 4.83325H13.8516L5.26562 11.3723L2.33105 10.2903L10.168 3.96021Z" stroke="#00FF40"/>
<path d="M9.36977 7.18752C9.31645 7.67334 8.61684 7.99512 7.80715 7.90625C6.99746 7.81739 6.38431 7.35152 6.43763 6.8657C6.49095 6.37989 7.19056 6.0581 8.00024 6.14697C8.80993 6.23584 9.42309 6.70171 9.36977 7.18752Z" fill="#00FF40"/>
<path d="M13.9467 5.15572C13.9085 5.50379 13.4072 5.73434 12.8271 5.67067C12.247 5.607 11.8077 5.27321 11.8459 4.92514C11.8841 4.57707 12.3853 4.34652 12.9654 4.41019C13.5456 4.47386 13.9849 4.80765 13.9467 5.15572Z" fill="#00FF40"/>
<path d="M13.5033 5.52755C13.4651 5.87562 12.9638 6.10617 12.3837 6.0425C11.8036 5.97882 11.3643 5.64504 11.4025 5.29697C11.4407 4.9489 11.942 4.71835 12.5221 4.78202C13.1022 4.84569 13.5415 5.17947 13.5033 5.52755Z" fill="#00FF40"/>
<path d="M6.16931 10.8608C6.13111 11.2089 5.62986 11.4394 5.04974 11.3757C4.46962 11.3121 4.03032 10.9783 4.06852 10.6302C4.10672 10.2822 4.60797 10.0516 5.18809 10.1153C5.76821 10.1789 6.20752 10.5127 6.16931 10.8608Z" fill="#00FF40"/>
<path d="M10.6361 4.51655C10.6132 4.72543 10.3124 4.86378 9.9643 4.82557C9.61618 4.78736 9.35255 4.58706 9.37548 4.37819C9.39841 4.16932 9.6992 4.03096 10.0473 4.06917C10.3954 4.10738 10.6591 4.30768 10.6361 4.51655Z" fill="#00FF40"/>
<path d="M3.66057 10.2331C3.61831 10.6181 3.28067 10.8969 2.90643 10.8558C2.53219 10.8148 2.26306 10.4693 2.30532 10.0843C2.34758 9.69931 2.68522 9.42049 3.05946 9.46156C3.4337 9.50264 3.70283 9.84806 3.66057 10.2331Z" fill="#00FF40"/>
</g>
<defs>
<clipPath id="clip0_3582_22735">
<rect width="16" height="16" fill="white"/>
</clipPath>
</defs>
</svg>
