<svg width="16" height="16" viewBox="0 0 16 16" fill="none" xmlns="http://www.w3.org/2000/svg">
<g clip-path="url(#clip0_3550_19912)">
<path d="M7.99992 1.33325C4.31992 1.33325 1.33325 4.31992 1.33325 7.99992C1.33325 11.6799 4.31992 14.6666 7.99992 14.6666C11.6799 14.6666 14.6666 11.6799 14.6666 7.99992C14.6666 4.31992 11.6799 1.33325 7.99992 1.33325ZM8.66659 3.53325L9.56659 2.89992C10.7799 3.27325 11.8133 4.07325 12.4866 5.12659L12.2266 6.01992L11.3266 6.32659L8.66659 4.46659V3.53325ZM6.43325 2.89992L7.33325 3.53325V4.46659L4.67325 6.32659L3.77325 6.01992L3.51325 5.12659C4.18659 4.07992 5.21992 3.27992 6.43325 2.89992ZM4.71992 11.4066L3.95992 11.4733C3.15325 10.5399 2.66659 9.32659 2.66659 7.99992C2.66659 7.91992 2.67325 7.84659 2.67992 7.76659L3.34659 7.27992L4.26659 7.59992L5.23992 10.4933L4.71992 11.4066ZM9.66659 13.0599C9.13992 13.2333 8.57992 13.3333 7.99992 13.3333C7.41992 13.3333 6.85992 13.2333 6.33325 13.0599L5.87325 12.0666L6.29992 11.3333H9.70659L10.1333 12.0733L9.66659 13.0599ZM9.51325 9.99992H6.48659L5.58659 7.31992L7.99992 5.62659L10.4199 7.31992L9.51325 9.99992ZM12.0399 11.4733L11.2799 11.4066L10.7533 10.4933L11.7266 7.59992L12.6533 7.28659L13.3199 7.77325C13.3266 7.84659 13.3333 7.91992 13.3333 7.99992C13.3333 9.32659 12.8466 10.5399 12.0399 11.4733Z" fill="#07CB38"/>
</g>
<defs>
<clipPath id="clip0_3550_19912">
<rect width="16" height="16" fill="white"/>
</clipPath>
</defs>
</svg>
