<svg width="16" height="16" viewBox="0 0 16 16" fill="none" xmlns="http://www.w3.org/2000/svg">
<g clip-path="url(#clip0_3550_19968)">
<path d="M10.667 1.33325C11.0352 1.33325 11.3337 1.63173 11.3337 1.99992L11.3337 7.33325L10.0003 7.33325L10.0003 1.99992C10.0003 1.63173 10.2988 1.33325 10.667 1.33325Z" fill="#07CB38"/>
<path d="M5.33366 14.6666C5.70185 14.6666 6.00032 14.3681 6.00032 13.9999L6.00032 8.66659L4.66699 8.66659L4.66699 13.9999C4.66699 14.3681 4.96547 14.6666 5.33366 14.6666Z" fill="#07CB38"/>
<path d="M11.3337 12.6666L11.3337 13.9999C11.3337 14.3681 11.0352 14.6666 10.667 14.6666C10.2988 14.6666 10.0003 14.3681 10.0003 13.9999L10.0003 12.6666L11.3337 12.6666Z" fill="#07CB38"/>
<path d="M6.00033 3.33325L6.00033 1.99992C6.00033 1.63173 5.70185 1.33325 5.33366 1.33325C4.96547 1.33325 4.66699 1.63173 4.66699 1.99992L4.66699 3.33325L6.00033 3.33325Z" fill="#07CB38"/>
<path d="M10.667 11.9999C9.56242 11.9999 8.66699 11.1045 8.66699 9.99992C8.66699 8.89535 9.56242 7.99992 10.667 7.99992C11.7716 7.99992 12.667 8.89535 12.667 9.99992C12.667 11.1045 11.7716 11.9999 10.667 11.9999Z" fill="#07CB38"/>
<path d="M5.33366 3.99992C4.22909 3.99992 3.33366 4.89535 3.33366 5.99992C3.33366 7.10449 4.22909 7.99992 5.33366 7.99992C6.43823 7.99992 7.33366 7.10449 7.33366 5.99992C7.33366 4.89535 6.43823 3.99992 5.33366 3.99992Z" fill="#07CB38"/>
</g>
<defs>
<clipPath id="clip0_3550_19968">
<rect width="16" height="16" fill="white"/>
</clipPath>
</defs>
</svg>
