<svg width="16" height="16" viewBox="0 0 16 16" fill="none" xmlns="http://www.w3.org/2000/svg">
<g clip-path="url(#clip0_3550_19975)">
<path d="M14.6663 7.33325H11.8863L14.0463 5.17325L13.1063 4.22659L9.99967 7.33325H8.66634V5.99992L11.773 2.89325L10.8263 1.95325L8.66634 4.11325V1.33325H7.33301V4.11325L5.17301 1.95325L4.22634 2.89325L7.33301 5.99992V7.33325H5.99967L2.89301 4.22659L1.95301 5.17325L4.11301 7.33325H1.33301V8.66659H4.11301L1.95301 10.8266L2.89301 11.7733L5.99967 8.66659H7.33301V9.99992L4.22634 13.1066L5.17301 14.0466L7.33301 11.8866V14.6666H8.66634V11.8866L10.8263 14.0466L11.773 13.1066L8.66634 9.99992V8.66659H9.99967L13.1063 11.7733L14.0463 10.8266L11.8863 8.66659H14.6663V7.33325Z" fill="#07CB38"/>
</g>
<defs>
<clipPath id="clip0_3550_19975">
<rect width="16" height="16" fill="white"/>
</clipPath>
</defs>
</svg>
