<svg width="25" height="24" viewBox="0 0 25 24" fill="none" xmlns="http://www.w3.org/2000/svg">
<g opacity="0.5" clip-path="url(#clip0_3162_17743)">
<path d="M14.6665 6V4H10.6665V6H14.6665ZM4.6665 8V19H20.6665V8H4.6665ZM20.6665 6C21.7765 6 22.6665 6.89 22.6665 8V19C22.6665 20.11 21.7765 21 20.6665 21H4.6665C3.5565 21 2.6665 20.11 2.6665 19L2.6765 8C2.6765 6.89 3.5565 6 4.6665 6H8.6665V4C8.6665 2.89 9.5565 2 10.6665 2H14.6665C15.7765 2 16.6665 2.89 16.6665 4V6H20.6665Z" fill="#07CB38"/>
</g>
<defs>
<clipPath id="clip0_3162_17743">
<rect width="24" height="24" fill="white" transform="translate(0.666504)"/>
</clipPath>
</defs>
</svg>
