<svg width="25" height="24" viewBox="0 0 25 24" fill="none" xmlns="http://www.w3.org/2000/svg">
<g opacity="0.5" clip-path="url(#clip0_3162_17729)">
<path d="M15.8833 13C16.6333 13 17.2933 12.59 17.6333 11.97L21.2133 5.48C21.5833 4.82 21.1033 4 20.3433 4H5.54325L4.60325 2H1.33325V4H3.33325L6.93325 11.59L5.58325 14.03C4.85325 15.37 5.81325 17 7.33325 17H19.3333V15H7.33325L8.43325 13H15.8833ZM6.49325 6H18.6433L15.8833 11H8.86325L6.49325 6ZM7.33325 18C6.23325 18 5.34325 18.9 5.34325 20C5.34325 21.1 6.23325 22 7.33325 22C8.43325 22 9.33325 21.1 9.33325 20C9.33325 18.9 8.43325 18 7.33325 18ZM17.3333 18C16.2333 18 15.3433 18.9 15.3433 20C15.3433 21.1 16.2333 22 17.3333 22C18.4333 22 19.3333 21.1 19.3333 20C19.3333 18.9 18.4333 18 17.3333 18Z" fill="#07CB38"/>
</g>
<defs>
<clipPath id="clip0_3162_17729">
<rect width="24" height="24" fill="white" transform="translate(0.333252)"/>
</clipPath>
</defs>
</svg>
