<svg width="44" height="44" viewBox="0 0 44 44" fill="none" xmlns="http://www.w3.org/2000/svg">
<path d="M44 22C44 34.1503 34.1503 44 22 44C9.84974 44 0 34.1503 0 22C0 9.84974 9.84974 0 22 0C34.1503 0 44 9.84974 44 22ZM5.50784 22C5.50784 31.1084 12.8916 38.4922 22 38.4922C31.1084 38.4922 38.4922 31.1084 38.4922 22C38.4922 12.8916 31.1084 5.50784 22 5.50784C12.8916 5.50784 5.50784 12.8916 5.50784 22Z" fill="#07CB38" fill-opacity="0.4"/>
<mask id="path-3-inside-1_3736_8878" fill="white">
<path d="M22 2.85305e-06C17.1531 3.06491e-06 12.4419 1.60063 8.59811 4.55325C4.75435 7.50586 1.99324 11.6452 0.743679 16.3282C-0.505886 21.0113 -0.17396 25.9759 1.6879 30.451C3.54976 34.926 6.83733 38.6609 11.0399 41.0756C15.2425 43.4902 20.1249 44.4494 24.9287 43.8042C29.7324 43.159 34.1887 40.9454 37.6051 37.5074C41.0216 34.0694 43.2071 29.5993 43.8222 24.7916C44.4372 19.9839 43.4473 15.1076 41.0063 10.9203L22 22L22 2.85305e-06Z"/>
</mask>
<path d="M22 2.85305e-06C17.1531 3.06491e-06 12.4419 1.60063 8.59811 4.55325C4.75435 7.50586 1.99324 11.6452 0.743679 16.3282C-0.505886 21.0113 -0.17396 25.9759 1.6879 30.451C3.54976 34.926 6.83733 38.6609 11.0399 41.0756C15.2425 43.4902 20.1249 44.4494 24.9287 43.8042C29.7324 43.159 34.1887 40.9454 37.6051 37.5074C41.0216 34.0694 43.2071 29.5993 43.8222 24.7916C44.4372 19.9839 43.4473 15.1076 41.0063 10.9203L22 22L22 2.85305e-06Z" stroke="#F97C39" stroke-width="19.25" stroke-linejoin="round" mask="url(#path-3-inside-1_3736_8878)"/>
<circle cx="22" cy="22" r="16.5" fill="#1E1E1E"/>
<g filter="url(#filter0_d_3736_8878)">
<path d="M19.2446 19.6909H21.4521C22.0107 19.6909 22.4727 19.562 22.8379 19.3042C23.2031 19.0356 23.4717 18.6597 23.6436 18.1763C23.8154 17.6821 23.9014 17.1074 23.9014 16.4521C23.9014 15.8721 23.8208 15.3618 23.6597 14.9214C23.4985 14.4702 23.2515 14.1157 22.9185 13.8579C22.5854 13.5894 22.1665 13.4551 21.6616 13.4551C21.2749 13.4551 20.9097 13.5625 20.5659 13.7773C20.2329 13.9814 19.9697 14.2822 19.7764 14.6797C19.583 15.0771 19.4863 15.5498 19.4863 16.0977H14.9585C14.9585 14.8086 15.2485 13.686 15.8286 12.73C16.4194 11.7739 17.2144 11.0327 18.2134 10.5063C19.2124 9.96924 20.3188 9.70068 21.5327 9.70068C22.897 9.70068 24.0947 9.95313 25.126 10.458C26.1572 10.9629 26.9629 11.7148 27.543 12.7139C28.123 13.7021 28.4131 14.9268 28.4131 16.3877C28.4131 17.1396 28.2734 17.8647 27.9941 18.563C27.7148 19.2505 27.3066 19.8735 26.7695 20.4321C26.2324 20.9907 25.5771 21.4312 24.8037 21.7534C24.0303 22.0757 23.1548 22.2368 22.1772 22.2368H19.2446V19.6909ZM19.2446 23.3486V20.8833H22.1772C23.2837 20.8833 24.2451 21.0283 25.0615 21.3184C25.8779 21.5977 26.5547 22.0059 27.0918 22.543C27.6396 23.0801 28.0479 23.7192 28.3164 24.4604C28.585 25.1909 28.7192 26.0073 28.7192 26.9097C28.7192 28.0054 28.5366 28.9829 28.1714 29.8423C27.8062 30.7017 27.2959 31.4268 26.6406 32.0176C25.9854 32.6084 25.2227 33.0596 24.3525 33.3711C23.4824 33.6719 22.5371 33.8223 21.5166 33.8223C20.668 33.8223 19.8354 33.688 19.019 33.4194C18.2134 33.1509 17.4883 32.7373 16.8438 32.1787C16.1992 31.6201 15.689 30.9165 15.313 30.0679C14.937 29.2192 14.749 28.2148 14.749 27.0547H19.2607C19.2607 27.6348 19.3628 28.1558 19.5669 28.6177C19.7817 29.0688 20.0664 29.4233 20.4209 29.6812C20.7754 29.939 21.1782 30.0679 21.6294 30.0679C22.1558 30.0679 22.6123 29.9336 22.999 29.665C23.3857 29.3965 23.6812 29.0205 23.8853 28.5371C24.0894 28.0537 24.1914 27.4951 24.1914 26.8613C24.1914 26.0234 24.084 25.3521 23.8691 24.8472C23.6543 24.3315 23.3428 23.9556 22.9346 23.7192C22.5264 23.4722 22.0322 23.3486 21.4521 23.3486H19.2446Z" fill="white"/>
</g>
<defs>
<filter id="filter0_d_3736_8878" x="14.749" y="9.70117" width="13.9702" height="26.1211" filterUnits="userSpaceOnUse" color-interpolation-filters="sRGB">
<feFlood flood-opacity="0" result="BackgroundImageFix"/>
<feColorMatrix in="SourceAlpha" type="matrix" values="0 0 0 0 0 0 0 0 0 0 0 0 0 0 0 0 0 0 127 0" result="hardAlpha"/>
<feOffset dy="2"/>
<feComposite in2="hardAlpha" operator="out"/>
<feColorMatrix type="matrix" values="0 0 0 0 0 0 0 0 0 0 0 0 0 0 0 0 0 0 0.25 0"/>
<feBlend mode="normal" in2="BackgroundImageFix" result="effect1_dropShadow_3736_8878"/>
<feBlend mode="normal" in="SourceGraphic" in2="effect1_dropShadow_3736_8878" result="shape"/>
</filter>
</defs>
</svg>
