<svg width="32" height="32" viewBox="0 0 32 32" fill="none" xmlns="http://www.w3.org/2000/svg">
<rect x="0.8" y="0.8" width="30.4" height="30.4" rx="15.2" fill="#1E1E1E" fill-opacity="0.5"/>
<rect x="0.8" y="0.8" width="30.4" height="30.4" rx="15.2" stroke="#F97C39" stroke-width="1.6"/>
<path d="M10.0518 9.6001H22.0726H10.0518ZM22.0726 22.1393H10.0518H22.0726Z" fill="#F97C39"/>
<path d="M14.3535 17.8296C14.3535 18.1726 14.2817 18.5123 14.1421 18.8293C14.0026 19.1462 13.7981 19.4342 13.5402 19.6768C13.2823 19.9194 12.9762 20.1118 12.6393 20.2431C12.3024 20.3744 11.9413 20.4419 11.5767 20.4419C11.212 20.4419 10.8509 20.3744 10.514 20.2431C10.1771 20.1118 9.87098 19.9194 9.61313 19.6768C9.35527 19.4342 9.15073 19.1462 9.01118 18.8293C8.87163 18.5123 8.7998 18.1726 8.7998 17.8296L14.3535 17.8296Z" fill="#F97C39"/>
<path d="M23.1998 17.8296C23.1998 18.1726 23.128 18.5123 22.9884 18.8293C22.8489 19.1462 22.6443 19.4342 22.3865 19.6768C22.1286 19.9194 21.8225 20.1118 21.4856 20.2431C21.1487 20.3744 20.7876 20.4419 20.4229 20.4419C20.0583 20.4419 19.6972 20.3744 19.3603 20.2431C19.0234 20.1118 18.7173 19.9194 18.4594 19.6768C18.2016 19.4342 17.997 19.1462 17.8575 18.8293C17.7179 18.5123 17.6461 18.1726 17.6461 17.8296L23.1998 17.8296Z" fill="#F97C39"/>
<path d="M16.6516 20.4958C17.6924 20.9275 19.5372 21.9505 19.5372 22.3997H12.5022C12.5022 21.8928 14.3003 20.9234 15.3476 20.5018V12.5895H16.6516V20.4958Z" fill="#F97C39"/>
<path d="M20.3472 11.2683C20.5108 11.2683 20.6434 11.4063 20.6435 11.577C20.6435 11.7477 20.5109 11.8866 20.3472 11.8867H11.6922C11.5285 11.8867 11.396 11.7477 11.396 11.577C11.3961 11.4063 11.5286 11.2683 11.6922 11.2683H20.3472Z" fill="#F97C39"/>
<path d="M16.0001 9.99072C16.36 9.99082 16.6515 10.2952 16.6516 10.6707V10.898H15.3476V10.6707C15.3477 10.2952 15.64 9.99072 16.0001 9.99072Z" fill="#F97C39"/>
<path d="M9.29172 17.1164L9.55984 17.2305L9.50547 17.3715L9.23828 17.2583L9.29172 17.1164ZM13.7252 16.5446L13.9417 17.1164L13.9961 17.2583L13.7289 17.3715L13.6745 17.2305L13.458 16.6588L13.5911 16.6022L13.7252 16.5446ZM18.0573 17.1164L18.3245 17.2305L18.2711 17.3715L18.0039 17.2583L18.0573 17.1164ZM22.7073 17.1164L22.7608 17.2583L22.4936 17.3715L22.4402 17.2305L22.7073 17.1164ZM9.50922 16.5446C9.53903 16.4668 9.62306 16.4289 9.69672 16.4602C9.77047 16.4917 9.80602 16.5807 9.77641 16.6588L9.55984 17.2305L9.42578 17.173L9.29172 17.1164L9.50922 16.5446ZM18.2748 16.5446L18.408 16.6022L18.542 16.6588L18.3245 17.2305L18.1914 17.173L18.0573 17.1164L18.2748 16.5446ZM22.4898 16.5446L22.7073 17.1164L22.5733 17.173L22.4402 17.2305L22.2227 16.6588L22.3567 16.6022L22.4898 16.5446ZM13.5377 16.4602C13.6113 16.429 13.6954 16.4668 13.7252 16.5446L13.458 16.6588C13.4283 16.5807 13.4639 16.4917 13.5377 16.4602ZM18.2748 16.5446C18.3046 16.467 18.3879 16.4292 18.4614 16.4602C18.5351 16.4916 18.5715 16.5807 18.542 16.6588L18.2748 16.5446ZM22.3023 16.4602C22.376 16.4289 22.46 16.4668 22.4898 16.5446L22.2227 16.6588C22.1932 16.5808 22.2288 16.4918 22.3023 16.4602ZM9.94328 15.4021L10.2105 15.5162C10.1807 15.5942 10.0967 15.632 10.023 15.6006C9.94935 15.5691 9.91364 15.4801 9.94328 15.4021ZM13.2911 15.4021C13.3208 15.4802 13.2842 15.5692 13.2105 15.6006C13.1369 15.6317 13.0536 15.594 13.0239 15.5162L13.2911 15.4021ZM18.7089 15.4021L18.9761 15.5162C18.9464 15.5943 18.8623 15.6319 18.7886 15.6006C18.7148 15.5692 18.6792 15.4802 18.7089 15.4021ZM21.6217 14.2596L22.0558 15.4021C22.0855 15.4802 22.0499 15.5692 21.9761 15.6006C21.9024 15.632 21.8183 15.5943 21.7886 15.5162L21.3545 14.3727L21.4886 14.3161L21.6217 14.2596ZM10.4092 14.2089C10.4488 14.1668 10.5095 14.1516 10.5648 14.1752C10.6385 14.2066 10.674 14.2947 10.6445 14.3727L10.2105 15.5162L10.0773 15.4587L9.94328 15.4021L10.3773 14.2596L10.4092 14.2089ZM12.6695 14.1752C12.7249 14.1516 12.7856 14.1667 12.8252 14.2089L12.857 14.2596L13.2911 15.4021L13.157 15.4587L13.0239 15.5162L12.5898 14.3727C12.5603 14.2946 12.5958 14.2066 12.6695 14.1752ZM19.143 14.2596C19.1726 14.1814 19.2567 14.1438 19.3305 14.1752C19.4038 14.2067 19.4395 14.2948 19.4102 14.3727L18.9761 15.5162L18.842 15.4587L18.7089 15.4021L19.143 14.2596ZM21.4342 14.1752C21.508 14.1438 21.592 14.1814 21.6217 14.2596L21.3545 14.3727C21.3251 14.2948 21.3608 14.2067 21.4342 14.1752ZM11.0823 12.4033L11.3495 12.5175L11.2961 12.6584L11.0786 13.2302C11.0489 13.3081 10.9657 13.3457 10.892 13.3146C10.8182 13.2831 10.7817 13.1942 10.8114 13.116L11.0289 12.5453L11.0823 12.4033ZM12.152 12.4033L12.2055 12.5453L12.422 13.116C12.4517 13.1942 12.4161 13.2831 12.3423 13.3146C12.2686 13.3459 12.1845 13.3083 12.1548 13.2302L11.8848 12.5175L12.152 12.4033ZM19.848 12.4033L20.1152 12.5175L20.0608 12.6584L19.8442 13.2302L19.8123 13.2808C19.7728 13.3228 19.712 13.3381 19.6567 13.3146C19.583 13.2831 19.5474 13.1941 19.577 13.116L19.7936 12.5453L19.848 12.4033ZM20.9702 12.5453L21.1877 13.116C21.2173 13.1941 21.1816 13.2831 21.108 13.3146C21.0342 13.346 20.9501 13.3083 20.9205 13.2302L20.703 12.6584L20.837 12.6018L20.9702 12.5453ZM20.9167 12.4033L20.9702 12.5453L20.703 12.6584L20.6495 12.5175L20.9167 12.4033Z" fill="#F97C39"/>
</svg>
