<svg width="17" height="16" viewBox="0 0 17 16" fill="none" xmlns="http://www.w3.org/2000/svg">
<path d="M11.8499 0.0477556C12.2131 0.0290274 12.5834 0.104443 12.9176 0.235121C13.8107 0.584379 14.5741 1.34034 15.089 2.09721C15.3606 2.49637 15.585 2.92812 15.7767 3.36612C15.8392 3.51067 15.8978 3.6566 15.9526 3.80387C16.0074 3.95114 16.0583 4.09962 16.1053 4.24932C16.1523 4.39902 16.1953 4.54968 16.2344 4.70139C16.2735 4.85311 16.3086 5.00561 16.3397 5.15896C16.3994 5.44026 16.4519 5.71552 16.4733 6.00214C16.4786 6.07345 16.5057 6.22001 16.4736 6.28449C16.4302 6.37172 16.0969 6.4623 15.999 6.49557C15.935 7.12466 15.879 7.75442 15.831 8.38481C15.7586 9.47344 15.6707 10.561 15.5675 11.6474C15.5557 11.7658 15.5442 12.1165 15.4992 12.2053C15.4727 12.2577 15.3848 12.2726 15.3328 12.2934C15.0203 12.4184 14.7136 12.5586 14.4061 12.6942C13.8882 12.9175 13.3735 13.1471 12.8619 13.3831L8.75226 15.2119C8.35032 15.3874 7.95237 15.5702 7.54923 15.7433C7.43344 15.793 7.32032 15.849 7.20272 15.8948C6.76322 15.6654 6.30855 15.4613 5.86204 15.2445L2.84513 13.7755L2.09029 13.4091C1.98923 13.3596 1.84622 13.3159 1.76706 13.2391C1.72285 13.1052 1.7201 12.9428 1.70356 12.8027L1.60121 11.9422L1.12836 8.21944C0.987701 8.16007 0.833204 8.10268 0.702608 8.02592C0.65445 7.9976 0.624827 7.97124 0.613209 7.9177C0.578088 7.75602 0.615515 7.31609 0.630858 7.13606C0.729659 5.9791 1.01418 4.61165 1.70746 3.63477C2.08887 3.09735 2.6603 2.68231 3.36254 2.63266C3.46636 2.62533 3.57762 2.62219 3.68147 2.63333C3.72857 2.63836 3.7793 2.65537 3.82617 2.65537C3.87876 2.65537 3.94067 2.63346 3.99135 2.62123C4.42802 2.51564 4.86344 2.40579 5.29766 2.29166C5.54595 2.22819 5.7957 2.15621 6.04794 2.10894C6.0819 1.9654 6.15724 1.77657 6.2662 1.66835C6.49666 1.60416 6.732 1.55581 6.96481 1.50001L7.91521 1.26467C8.25192 1.18238 8.60561 1.0729 8.94108 1.00331C9.00795 0.989444 9.07451 1.02916 9.14529 1.01588C9.32262 0.982656 9.50058 0.929405 9.67579 0.88625C9.89866 0.831323 10.129 0.782554 10.3479 0.714889C10.431 0.689164 10.4849 0.603568 10.5507 0.551447C10.9268 0.253305 11.357 0.0715534 11.8501 0.0478813L11.8499 0.0477556Z" fill="#10FF08"/>
<path d="M4.22533 13.4278C4.44758 13.5316 4.67251 13.6301 4.89331 13.7367L6.32921 14.4226C6.57297 14.539 6.84906 14.689 7.09929 14.7831C7.10749 15.0117 7.13289 15.2396 7.13138 15.4687C6.9654 15.4006 6.80405 15.315 6.64228 15.2379C6.32136 15.0887 6.00234 14.9359 5.68528 14.7795C4.8187 14.3692 3.9551 13.9535 3.09446 13.5322L2.36692 13.1691C2.27345 13.1221 2.18402 13.0661 2.0874 13.0253C2.04984 12.8193 2.03084 12.6078 2.00463 12.4003L4.22533 13.4278Z" fill="#004917"/>
<path d="M15.2411 11.335C15.2599 11.375 15.2068 11.8994 15.1931 11.9782C14.7415 12.1906 14.2784 12.3827 13.8197 12.5812L12.1977 13.298L9.2321 14.6201C8.5989 14.9028 7.9672 15.1943 7.32819 15.4648C7.32398 15.2445 7.31687 15.0244 7.30685 14.8043L15.2384 11.332C15.2393 11.333 15.2405 11.3338 15.2411 11.335Z" fill="#004917"/>
<path d="M8.02832 10.3105C8.06445 10.378 8.07654 13.8509 8.09029 14.2449C7.99284 14.2947 7.34327 14.594 7.29409 14.5915L7.28887 14.5659C7.25676 13.7484 7.23105 12.9307 7.21163 12.1128C7.1993 11.6258 7.20034 11.1336 7.16096 10.6478C7.44117 10.5529 7.72055 10.4079 8.00963 10.3088L8.02832 10.3105Z" fill="#004917"/>
<path d="M6.06179 10.2518C6.34976 10.3768 6.69385 10.5273 6.96967 10.6712C6.98643 10.837 6.98726 11.0062 6.99342 11.1726C7.0058 11.5834 7.01563 11.9943 7.0229 12.4052L7.0683 13.89C7.07642 14.1226 7.0936 14.3554 7.09577 14.5881C6.83516 14.4482 6.56238 14.3318 6.29551 14.2033C6.28571 13.8018 6.25462 13.4005 6.23183 12.9995L6.06179 10.2518Z" fill="#004917"/>
<path d="M14.5651 7.72686L14.5724 7.73259C14.5976 7.80511 14.5352 8.61664 14.5264 8.77086L14.4373 10.4696C14.4189 10.8141 14.3865 11.1614 14.3875 11.5062C13.9595 11.6778 13.5441 11.8845 13.1214 12.068L11.8502 12.6135C11.5674 12.7325 11.2813 12.846 11.0012 12.9702L9.44774 13.6548C9.06119 13.8267 8.67527 14.0067 8.28273 14.1656L8.24682 11.5663C8.24403 11.1156 8.22392 10.6629 8.2303 10.2125C8.37313 10.1595 8.51301 10.0973 8.65451 10.041L9.59122 9.66685C9.91578 9.536 10.2479 9.41658 10.5686 9.2779C10.5957 9.68577 10.5952 10.099 10.6012 10.5078C10.8408 10.7263 11.1036 10.9234 11.3517 11.1332L11.9409 11.6228C12.038 11.703 12.1417 11.8094 12.254 11.8692C12.3223 11.7152 12.38 11.5573 12.4437 11.4015C12.6088 10.9993 12.7716 10.5961 12.9321 10.1922L13.1313 9.70954C13.1741 9.60556 13.2277 9.49721 13.2474 9.38677C13.274 9.23724 13.2611 9.06913 13.2597 8.91717C13.256 8.68817 13.2549 8.45911 13.2564 8.23007C13.6938 8.06495 14.1257 7.88748 14.565 7.72672L14.5651 7.72686Z" fill="#004917"/>
<path d="M2.34211 8.61045C2.4668 8.65913 2.58557 8.72533 2.70827 8.77895L3.5924 9.16108C4.13855 9.3955 4.68155 9.63623 5.22145 9.88326C5.4347 9.97845 5.65112 10.0661 5.86286 10.1646C5.87266 10.3874 5.89576 10.6109 5.90831 10.8339C5.93749 11.405 5.97102 11.9759 6.0088 12.5467C6.03155 12.8631 6.05094 13.1797 6.06686 13.4965C6.0787 13.6941 6.09744 13.893 6.10045 14.0908C5.69613 13.9208 5.30071 13.7283 4.90556 13.54L3.94896 13.0883C3.5837 12.9128 3.21787 12.7267 2.8405 12.5755C2.78476 12.1418 2.73257 11.7076 2.68401 11.2731C2.66668 11.13 2.64271 10.9876 2.6251 10.8445C2.54019 10.0988 2.44587 9.35414 2.34206 8.61059L2.34211 8.61045Z" fill="#004917"/>
<path d="M1.46316 8.23452C1.55358 8.26234 1.64035 8.30741 1.72616 8.34608C1.85915 8.40725 1.99398 8.46446 2.13074 8.51767C2.17162 8.9198 2.23826 9.32185 2.29134 9.72289C2.41284 10.6402 2.53624 11.5609 2.63229 12.481C2.40995 12.3838 2.19209 12.2752 1.97405 12.1697C1.93556 12.0037 1.92906 11.8208 1.90831 11.6515L1.78391 10.6881C1.7362 10.3095 1.69255 9.92967 1.64053 9.55154C1.58014 9.11255 1.51149 8.67502 1.46316 8.23452Z" fill="#004917"/>
<path d="M12.2079 9.32637C12.2326 9.32499 12.2622 9.32689 12.2857 9.33452C12.3542 9.35668 12.3924 9.42164 12.4243 9.47841L12.4153 9.47874L12.4005 9.4795C12.3715 9.4808 12.3422 9.48086 12.3144 9.48944C12.22 9.51868 12.1456 9.59496 12.1043 9.67811C12.0581 9.77124 12.0341 9.90696 12.075 10.0046C12.0928 10.0472 12.1253 10.0843 12.17 10.103C12.1844 10.109 12.1961 10.1144 12.209 10.1231L12.2019 10.1392C12.1829 10.1463 12.1637 10.1535 12.1441 10.1589C12.0859 10.1751 12.0259 10.1728 11.9729 10.1432C11.9079 10.1069 11.87 10.0406 11.8538 9.97277C11.8183 9.82404 11.8626 9.64162 11.9468 9.51358C12.0088 9.41915 12.0914 9.35219 12.2079 9.32637Z" fill="#004917"/>
<path fill-rule="evenodd" clip-rule="evenodd" d="M13.0626 7.4811C13.0851 7.5265 13.0751 8.02199 13.0748 8.10705L13.0718 8.92422C13.0725 9.06177 13.0919 9.21328 13.0715 9.34853C13.0515 9.48067 12.9187 9.7386 12.8631 9.8772C12.6362 10.4439 12.3952 11.0052 12.1813 11.5765C11.8595 11.3026 11.5328 11.034 11.2012 10.7706C11.0613 10.6584 10.9269 10.5386 10.7895 10.4234C10.7742 10.0193 10.7616 9.61509 10.7516 9.21083C10.7434 8.94834 10.7229 8.6828 10.7271 8.4204C10.8105 8.39283 10.8936 8.36303 10.9799 8.34485C10.9818 8.41917 10.9657 8.50319 10.9919 8.57466C11.021 8.65379 11.0973 8.68929 11.1724 8.72201C11.3262 8.70222 11.7029 8.52414 11.8659 8.45945C12.0143 8.40052 12.6272 8.18832 12.7156 8.10378C12.8687 7.95727 12.8587 7.7475 12.8616 7.55825C12.9277 7.53446 12.9916 7.50801 13.0555 7.47944L13.0626 7.4811ZM12.4043 9.17396C12.3208 9.13438 12.2306 9.13108 12.1395 9.13841C11.9482 9.1982 11.8266 9.31164 11.7362 9.4804C11.6436 9.65314 11.6133 9.8822 11.6801 10.0673C11.7185 10.1736 11.7886 10.2702 11.8977 10.3212C11.9764 10.358 12.0712 10.3673 12.1569 10.3503C12.339 10.2943 12.4629 10.1959 12.5501 10.0335C12.6451 9.85648 12.685 9.61184 12.6176 9.42066C12.5813 9.31777 12.5083 9.22336 12.4043 9.17396Z" fill="#004917"/>
<path d="M15.5532 7.33801C15.5633 7.33859 15.5573 7.33726 15.5695 7.34643C15.57 7.48863 15.5477 7.63714 15.5378 7.77959L15.4569 8.84016L15.3481 10.1743C15.3233 10.4921 15.3058 10.8113 15.2695 11.1281C15.0422 11.2175 14.8207 11.3169 14.5997 11.4192L14.5836 11.4215C14.5462 11.365 14.7646 8.00595 14.7673 7.63721C15.0313 7.54218 15.2933 7.44246 15.5533 7.33806L15.5532 7.33801Z" fill="#004917"/>
<path d="M0.975265 7.18928C1.40944 7.36974 1.83466 7.57212 2.26578 7.75919L6.00443 9.3481C6.32411 9.48414 6.65005 9.61513 6.96073 9.76881C6.95838 9.98403 6.98398 10.2362 6.96389 10.4456L6.94777 10.4509C6.59453 10.2866 6.23629 10.1325 5.88039 9.97343C4.98104 9.5682 4.07802 9.17034 3.17135 8.7799C2.62844 8.54482 2.09064 8.30277 1.55225 8.05872C1.35017 7.96713 1.14018 7.88752 0.941567 7.78986C0.940547 7.58959 0.95975 7.38898 0.975315 7.18938L0.975265 7.18928Z" fill="#004917"/>
<path d="M10.5179 8.49807C10.5542 8.54437 10.5511 8.99405 10.5554 9.08682C9.60509 9.45434 8.65872 9.83077 7.71635 10.216C7.53728 10.2888 7.36122 10.3678 7.18185 10.4398L7.16181 10.4432C7.14354 10.411 7.14884 9.85119 7.1483 9.76166C7.54918 9.61506 7.94856 9.4649 8.34646 9.31113C9.06847 9.03696 9.79154 8.76148 10.5179 8.49807Z" fill="#004917"/>
<path d="M10.9516 7.22251C10.9717 7.31016 10.963 7.41839 10.9658 7.50855L10.984 8.122C10.8059 8.20287 10.6118 8.26366 10.4272 8.33103L9.49791 8.67643L8.20017 9.16496C7.86448 9.29371 7.52859 9.4316 7.18727 9.54615L7.15483 9.55159C7.13434 9.53001 7.14643 8.67025 7.1471 8.57849C7.52443 8.42527 7.91554 8.29587 8.29966 8.15807C9.17985 7.84225 10.0651 7.53799 10.9424 7.21518L10.9424 7.21513L10.9516 7.22251Z" fill="#004917"/>
<path d="M1.10142 6.21468C1.27343 6.27287 1.44261 6.34429 1.61126 6.41078L2.5783 6.79831L5.59238 8.02913C6.04708 8.21625 6.49702 8.41665 6.95651 8.59312C6.95509 8.90974 6.96014 9.22682 6.95571 9.54331C6.93549 9.54947 6.90128 9.5319 6.88053 9.52461C6.77442 9.48385 6.67163 9.43288 6.56685 9.38881C6.21874 9.24141 5.87207 9.09095 5.52689 8.93752C5.25466 8.81724 4.97497 8.71283 4.70056 8.59724C4.5411 8.53008 4.38691 8.45237 4.22789 8.38433C3.15019 7.923 2.06314 7.48072 0.998919 6.99157C1.01094 6.73625 1.0459 6.46513 1.10142 6.21468Z" fill="#004917"/>
<path d="M11.3481 6.88223C11.3671 6.87896 11.3586 6.87713 11.3738 6.88706C11.3954 6.96855 11.3838 7.07242 11.3849 7.15705L11.3916 7.70783C11.393 7.83411 11.3877 7.96474 11.4083 8.08967C11.5149 8.19094 11.6971 8.23009 11.8362 8.27437C11.7148 8.32817 11.5857 8.37115 11.4623 8.4213C11.3694 8.4598 11.2757 8.49629 11.181 8.53073C11.1731 8.40923 11.177 8.28512 11.1755 8.16328C11.1729 7.92945 11.1685 7.69562 11.1624 7.46183C11.1588 7.33464 11.1707 7.17748 11.13 7.05694L11.1026 6.97742C11.1817 6.94038 11.2656 6.91176 11.3481 6.88223Z" fill="#004917"/>
<path d="M3.46469 2.97054C4.17496 2.93082 4.87552 3.33611 5.40952 3.74147C6.53543 4.59622 7.31862 5.98711 7.69098 7.28944C7.76739 7.5567 7.84265 7.83109 7.87414 8.10686C7.7388 8.16032 7.59938 8.20456 7.46218 8.25345C7.34051 8.29681 7.22057 8.34495 7.09713 8.38357C6.93806 7.54726 6.68142 6.70367 6.28622 5.93858C6.19935 5.77041 6.09896 5.60865 6.00057 5.44635C5.91623 5.31509 5.82768 5.18639 5.735 5.0602C5.32787 4.50551 4.60881 3.84556 3.88257 3.72518C3.5065 3.66285 3.13817 3.73624 2.82599 3.94614C2.24095 4.3396 1.9646 5.0892 1.82354 5.72709C1.78509 5.90104 1.76102 6.07695 1.73073 6.25221C1.52967 6.19121 1.33115 6.10444 1.13843 6.02245C1.28508 5.34732 1.47525 4.68406 1.83147 4.07801C1.92712 3.91524 2.02838 3.75845 2.15831 3.61759C2.52419 3.22092 2.90029 3.00757 3.46479 2.97054H3.46469Z" fill="#004917"/>
<path d="M3.50276 3.88683C3.8266 3.83623 4.26389 4.0094 4.53252 4.17263C5.40904 4.70515 6.06382 5.76088 6.41534 6.66842C6.62917 7.22042 6.77326 7.78711 6.90483 8.36047C6.77553 8.32101 6.65038 8.26661 6.52547 8.21629C6.28885 8.1201 6.05287 8.02236 5.81766 7.92306L3.05956 6.78936C2.8017 6.68156 2.54083 6.58024 2.2823 6.47378C2.1612 6.42393 2.03715 6.37692 1.91986 6.31957C1.92332 6.19216 1.95434 6.05783 1.97842 5.93252C2.08099 5.39929 2.25127 4.84821 2.60225 4.40964C2.82828 4.12716 3.12831 3.93463 3.50276 3.88683Z" fill="#004917"/>
<path d="M12.1849 6.27484C12.2412 6.2696 12.2937 6.2681 12.3491 6.28113C12.49 6.31427 12.5958 6.40206 12.6704 6.51653L12.6712 7.8487C12.5199 7.97179 12.3587 8.06588 12.1844 8.15608L12.0753 8.14018C11.9065 8.10524 11.7429 8.06672 11.5856 7.99709C11.5847 7.7189 11.5772 7.44012 11.5716 7.16193C11.5694 7.05203 11.55 6.90287 11.5709 6.79854C11.5815 6.74542 11.6123 6.69289 11.6435 6.64802C11.7721 6.46326 11.9528 6.32022 12.1849 6.27484Z" fill="#004917"/>
<path d="M10.7964 5.94568L10.8047 5.94762C10.8534 6.02173 10.9214 6.87419 10.9284 7.0238C10.8194 7.07743 10.6948 7.11092 10.5793 7.15118L10.0295 7.34757C9.37293 7.58467 8.71499 7.81819 8.05563 8.04816L8.04142 7.96467C7.98666 7.62648 7.88793 7.29348 7.79303 6.96383C8.02566 6.87158 8.26865 6.79879 8.50531 6.71613L9.93794 6.22703C10.2237 6.13247 10.512 6.04367 10.7964 5.94563L10.7964 5.94568Z" fill="#004917"/>
<path d="M15.6318 6.51534C15.6489 6.54714 15.5929 7.05402 15.5836 7.1295C15.3576 7.21217 15.1348 7.30427 14.9109 7.39192L13.2772 8.03373C13.2369 7.98752 13.2586 7.49535 13.2588 7.40768C13.4952 7.31132 13.7378 7.22643 13.9768 7.13584L15.6258 6.51307L15.6318 6.51534Z" fill="#004917"/>
<path d="M16.0017 5.32905C16.0181 5.32608 16.009 5.32613 16.0289 5.33133C16.0906 5.44474 16.1414 5.97634 16.1463 6.12436C16.0228 6.15939 15.9022 6.21153 15.7814 6.25477C15.4243 6.38272 15.0735 6.5213 14.7197 6.65697C14.1396 6.87936 13.5496 7.08217 12.9735 7.31349L12.8542 7.36456C12.8397 7.05256 12.8488 6.73803 12.8499 6.42564C13.4649 6.20627 14.0862 6.00161 14.7027 5.78588L15.4676 5.51659C15.6452 5.4532 15.8216 5.38586 16.0017 5.32901L16.0017 5.32905Z" fill="#004917"/>
<path d="M10.263 4.2976L10.2781 4.30247C10.3294 4.35878 10.359 4.4508 10.389 4.51959C10.5661 4.92667 10.6861 5.33463 10.7713 5.76718L8.65281 6.47501C8.34284 6.57842 8.0351 6.68754 7.72965 6.80242L7.67999 6.66184C7.56899 6.36181 7.43336 6.05895 7.28214 5.77518C7.19984 5.62071 7.10359 5.47191 7.02506 5.31618C7.22633 5.23842 7.44068 5.1791 7.64744 5.11534C7.93489 5.02434 8.22308 4.93542 8.51199 4.84861C9.09684 4.66816 9.68057 4.48449 10.2631 4.29755L10.263 4.2976Z" fill="#004917"/>
<path d="M8.99983 1.3128C9.12678 1.32592 9.26825 1.37776 9.39014 1.41433C10.0463 1.61133 10.6405 1.93264 11.1259 2.39699C11.307 2.57027 11.4628 2.75813 11.611 2.95719C12.3204 3.90989 12.6158 5.03991 12.6083 6.19498C12.4648 6.13235 12.3224 6.08515 12.1625 6.10472C11.7852 6.15098 11.5952 6.44206 11.3849 6.70283C11.2891 6.72751 11.1956 6.75962 11.1018 6.79012C11.0903 6.66531 11.0779 6.54053 11.0645 6.41589C11.0328 6.21299 11.0134 6.00911 10.9763 5.80675C10.8381 5.05478 10.5753 4.29671 10.1175 3.66176C9.30092 2.52906 8.32787 2.09916 6.93758 1.85037C7.16946 1.767 7.49769 1.70564 7.74296 1.64447C8.16268 1.53659 8.58166 1.42605 8.99983 1.3128Z" fill="#004917"/>
<path d="M14.8885 4.4707C14.9427 4.51468 15.1226 5.30986 15.1468 5.44199C14.9487 5.50061 14.7522 5.57554 14.5572 5.64316C14.0205 5.82927 13.4879 6.02872 12.9468 6.20322C12.8939 6.22019 12.8407 6.23617 12.7871 6.25112C12.784 5.89304 12.7598 5.54253 12.727 5.18587C13.0392 5.06516 13.3655 4.96772 13.6845 4.86428L14.8735 4.4715L14.8735 4.47155L14.8885 4.4707Z" fill="#004917"/>
<path d="M11.8525 0.382447C12.4355 0.335648 13.0184 0.594186 13.4767 0.915997C14.2701 1.47315 14.8842 2.29564 15.2978 3.13639C15.4468 3.44551 15.5759 3.76188 15.685 4.08554C15.8058 4.43361 15.9134 4.78701 15.9702 5.15004C15.7545 5.23513 15.5295 5.31981 15.3053 5.38278C15.2826 5.29949 15.2707 5.21079 15.2539 5.12604C15.1968 4.76258 15.0551 4.3218 14.9223 3.97246C14.8445 3.76793 14.7672 3.56377 14.6746 3.36469C14.6545 3.32095 14.6338 3.27738 14.6126 3.23414C14.5913 3.19087 14.5695 3.14789 14.547 3.1052C14.5246 3.06247 14.5016 3.02002 14.478 2.97787C14.4544 2.93573 14.4303 2.89381 14.4055 2.85225C14.3808 2.8107 14.3556 2.76939 14.3297 2.72847C14.3039 2.6875 14.2775 2.64684 14.2505 2.60654C14.2236 2.56623 14.196 2.52623 14.168 2.48659C14.14 2.44691 14.1114 2.4076 14.0823 2.36863C14.0532 2.32968 14.0235 2.2911 13.9934 2.25286C13.9632 2.2146 13.9326 2.1767 13.9014 2.13921C13.8702 2.10171 13.8385 2.06457 13.8063 2.02783C13.7741 1.99109 13.7414 1.95476 13.7082 1.91887C13.6751 1.88292 13.6414 1.84738 13.6072 1.81227C13.5731 1.77716 13.5385 1.74249 13.5034 1.70818C13.4683 1.67391 13.4327 1.64004 13.3967 1.6066C13.3607 1.57317 13.3243 1.54018 13.2873 1.50767C12.7906 1.06943 12.0399 0.678317 11.3492 0.655944C11.1992 0.651085 11.0517 0.697162 10.9 0.702189C11.1753 0.503056 11.5119 0.411908 11.8524 0.382494L11.8525 0.382447Z" fill="#004917"/>
<path d="M9.16566 2.93461C9.16973 2.93494 9.17391 2.9346 9.17786 2.93565C9.24043 2.95279 9.32684 3.05119 9.37327 3.09488C9.71414 3.41552 9.98455 3.73528 10.2025 4.14324C10.0534 4.17483 9.90621 4.2267 9.76082 4.27085C9.52752 4.3417 9.29428 4.41146 9.062 4.48537L7.60415 4.93703C7.5022 4.96904 6.98897 5.14539 6.92959 5.14208C6.91324 5.14116 6.9095 5.12912 6.90001 5.11785C6.59199 4.64768 6.21937 4.22344 5.80616 3.83254C6.2583 3.72901 6.70791 3.60338 7.15584 3.4844C7.82801 3.30851 8.49796 3.12529 9.16561 2.9347L9.16566 2.93461Z" fill="#004917"/>
<path d="M14.207 2.91293C14.2506 2.95299 14.2835 3.02392 14.3125 3.07448C14.5351 3.46169 14.6967 3.87959 14.8416 4.29722C14.5023 4.40502 14.1643 4.51677 13.8279 4.63248C13.483 4.74791 13.1373 4.85945 12.7938 4.97911L12.6947 5.00841C12.6196 4.47925 12.4056 3.95994 12.1651 3.48047C12.836 3.283 13.5096 3.09385 14.1857 2.91302C14.1915 2.91161 14.2009 2.9128 14.207 2.91293Z" fill="#004917"/>
<path d="M7.35611 2.12202C7.42614 2.11737 7.53968 2.16122 7.60832 2.17916C8.11898 2.3123 8.58371 2.50476 9.01429 2.79862C8.90618 2.83586 8.79169 2.86012 8.68083 2.88974L8.0602 3.05673C7.34081 3.24854 6.62022 3.43629 5.89847 3.62005L5.62944 3.68888C5.57982 3.64694 5.52926 3.60603 5.47777 3.56614C5.42629 3.5263 5.37389 3.4875 5.32063 3.44975C5.26738 3.41204 5.21326 3.37546 5.15832 3.33993C5.10338 3.30445 5.04768 3.27001 4.99119 3.23679C4.9347 3.20357 4.87739 3.17148 4.81943 3.14061C4.76143 3.10973 4.70274 3.08001 4.64341 3.05152C4.58408 3.02304 4.52414 2.99575 4.46352 2.96973C4.4029 2.94367 4.34174 2.91891 4.28002 2.89537C4.68883 2.78635 5.10372 2.69297 5.51484 2.59163L7.35611 2.12202Z" fill="#004917"/>
<path d="M13.0866 1.56391C13.2591 1.61019 14.0024 2.56258 14.1204 2.75384C13.7741 2.83939 13.4325 2.94215 13.0889 3.03671C12.7579 3.12783 12.4261 3.2079 12.1039 3.32526C12.0724 3.32559 12.0425 3.25847 12.0275 3.23466C11.771 2.82679 11.4559 2.42714 11.0739 2.11639C11.2688 2.0662 11.4613 2.00829 11.6561 1.95773C12.1342 1.83371 12.6165 1.71344 13.0866 1.56391Z" fill="#004917"/>
<path d="M6.53808 1.9831C6.70751 2.00057 6.81764 2.01665 6.98614 2.04397C6.94025 2.05761 4.19259 2.79448 4.14678 2.80709C3.94108 2.80709 3.94108 2.73439 3.3754 2.80709C4.01822 2.58898 6.31375 2.04047 6.53808 1.9831Z" fill="#004917"/>
<path d="M11.3572 0.844192C11.3622 0.843521 11.3672 0.84279 11.3722 0.842204C11.6606 0.809201 12.275 1.05974 12.5387 1.19716C12.6691 1.26457 12.7925 1.34187 12.909 1.42905C12.3029 1.61516 11.6841 1.75903 11.0742 1.93387L10.9099 1.97827C10.4666 1.65147 9.87206 1.40933 9.34077 1.23181C9.50317 1.20001 9.82262 1.10059 9.98359 1.06217L10.7807 0.819814L11.3572 0.844192Z" fill="#004917"/>
</svg>
