<svg width="17" height="16" viewBox="0 0 17 16" fill="none" xmlns="http://www.w3.org/2000/svg">
<path d="M11.8499 0.0477556C12.2131 0.0290274 12.5834 0.104443 12.9176 0.235121C13.8107 0.584379 14.5741 1.34034 15.089 2.09721C15.3606 2.49637 15.585 2.92812 15.7767 3.36612C15.8392 3.51067 15.8978 3.6566 15.9526 3.80387C16.0074 3.95114 16.0583 4.09962 16.1053 4.24932C16.1523 4.39902 16.1953 4.54968 16.2344 4.70139C16.2735 4.85311 16.3086 5.00561 16.3397 5.15896C16.3994 5.44026 16.4519 5.71552 16.4733 6.00214C16.4786 6.07345 16.5057 6.22001 16.4736 6.28449C16.4302 6.37172 16.0969 6.4623 15.999 6.49557C15.935 7.12466 15.879 7.75442 15.831 8.38481C15.7586 9.47344 15.6707 10.561 15.5675 11.6474C15.5557 11.7658 15.5442 12.1165 15.4992 12.2053C15.4727 12.2577 15.3848 12.2726 15.3328 12.2934C15.0203 12.4184 14.7136 12.5586 14.4061 12.6942C13.8882 12.9175 13.3735 13.1471 12.8619 13.3831L8.75226 15.2119C8.35032 15.3874 7.95237 15.5702 7.54923 15.7433C7.43344 15.793 7.32032 15.849 7.20272 15.8948C6.76322 15.6654 6.30855 15.4613 5.86204 15.2445L2.84513 13.7755L2.09029 13.4091C1.98923 13.3596 1.84622 13.3159 1.76706 13.2391C1.72285 13.1052 1.7201 12.9428 1.70356 12.8027L1.60121 11.9422L1.12836 8.21944C0.987701 8.16007 0.833204 8.10268 0.702608 8.02592C0.65445 7.9976 0.624827 7.97124 0.613209 7.9177C0.578088 7.75602 0.615515 7.31609 0.630858 7.13606C0.729659 5.9791 1.01418 4.61165 1.70746 3.63477C2.08887 3.09735 2.6603 2.68231 3.36254 2.63266C3.46636 2.62533 3.57762 2.62219 3.68147 2.63333C3.72857 2.63836 3.7793 2.65537 3.82617 2.65537C3.87876 2.65537 3.94067 2.63346 3.99135 2.62123C4.42802 2.51564 4.86344 2.40579 5.29766 2.29166C5.54595 2.22819 5.7957 2.15621 6.04794 2.10894C6.0819 1.9654 6.15724 1.77657 6.2662 1.66835C6.49666 1.60416 6.732 1.55581 6.96481 1.50001L7.91521 1.26467C8.25192 1.18238 8.60561 1.0729 8.94108 1.00331C9.00795 0.989444 9.07451 1.02916 9.14529 1.01588C9.32262 0.982656 9.50058 0.929405 9.67579 0.88625C9.89866 0.831323 10.129 0.782554 10.3479 0.714889C10.431 0.689164 10.4849 0.603568 10.5507 0.551447C10.9268 0.253305 11.357 0.0715534 11.8501 0.0478813L11.8499 0.0477556Z" fill="#10FF08"/>
<path d="M4.2252 13.4288C4.44746 13.5325 4.67239 13.6311 4.89319 13.7377L6.32909 14.4236C6.57284 14.5399 6.84894 14.6899 7.09917 14.7841C7.10737 15.0127 7.13276 15.2406 7.13126 15.4697C6.96528 15.4015 6.80393 15.316 6.64216 15.2389C6.32124 15.0897 6.00222 14.9369 5.68516 14.7805C4.81858 14.3702 3.95498 13.9545 3.09434 13.5332L2.3668 13.17C2.27333 13.1231 2.18389 13.0671 2.08727 13.0262C2.04972 12.8203 2.03072 12.6088 2.00451 12.4012L4.2252 13.4288Z" fill="#004917"/>
<path d="M15.241 11.336C15.2598 11.376 15.2066 11.9004 15.193 11.9792C14.7413 12.1915 14.2783 12.3837 13.8196 12.5821L12.1975 13.299L9.23198 14.6211C8.59878 14.9037 7.96707 15.1953 7.32807 15.4657C7.32386 15.2455 7.31675 15.0254 7.30673 14.8053L15.2383 11.3329C15.2392 11.334 15.2404 11.3348 15.241 11.336Z" fill="#004917"/>
<path d="M8.02819 10.3114C8.06432 10.379 8.07642 13.8519 8.09017 14.2458C7.99272 14.2957 7.34315 14.5949 7.29397 14.5925L7.28875 14.5669C7.25664 13.7494 7.23093 12.9317 7.21151 12.1138C7.19918 11.6268 7.20021 11.1345 7.16084 10.6488C7.44105 10.5539 7.72043 10.4089 8.00951 10.3098L8.02819 10.3114Z" fill="#004917"/>
<path d="M6.06166 10.2527C6.34963 10.3778 6.69373 10.5282 6.96955 10.6722C6.98631 10.8379 6.98714 11.0072 6.9933 11.1736C7.00567 11.5844 7.01551 11.9953 7.02278 12.4062L7.06818 13.891C7.07629 14.1236 7.09348 14.3564 7.09565 14.5891C6.83504 14.4492 6.56225 14.3328 6.29539 14.2042C6.28559 13.8028 6.2545 13.4014 6.23171 13.0005L6.06166 10.2527Z" fill="#004917"/>
<path d="M14.565 7.72784L14.5723 7.73356C14.5975 7.80609 14.5351 8.61761 14.5263 8.77184L14.4372 10.4706C14.4188 10.8151 14.3864 11.1624 14.3873 11.5072C13.9594 11.6788 13.5439 11.8855 13.1213 12.0689L11.8501 12.6145C11.5673 12.7335 11.2812 12.8469 11.001 12.9711L9.44762 13.6558C9.06107 13.8276 8.67515 14.0076 8.28261 14.1666L8.2467 11.5672C8.24391 11.1166 8.22379 10.6638 8.23018 10.2135C8.37301 10.1605 8.51289 10.0983 8.65439 10.042L9.5911 9.66782C9.91566 9.53698 10.2478 9.41756 10.5685 9.27888C10.5956 9.68675 10.5951 10.1 10.601 10.5088C10.8407 10.7273 11.1035 10.9244 11.3516 11.1342L11.9408 11.6238C12.0379 11.704 12.1416 11.8104 12.2538 11.8702C12.3222 11.7161 12.3798 11.5583 12.4436 11.4025C12.6087 11.0003 12.7715 10.5971 12.932 10.1932L13.1312 9.71052C13.1739 9.60653 13.2276 9.49819 13.2472 9.38775C13.2739 9.23822 13.261 9.07011 13.2595 8.91815C13.2559 8.68914 13.2548 8.46009 13.2563 8.23104C13.6937 8.06593 14.1256 7.88845 14.5649 7.72769L14.565 7.72784Z" fill="#004917"/>
<path d="M2.34199 8.61142C2.46668 8.66011 2.58545 8.7263 2.70815 8.77993L3.59228 9.16206C4.13842 9.39647 4.68143 9.63721 5.22133 9.88424C5.43458 9.97943 5.65099 10.067 5.86274 10.1656C5.87254 10.3884 5.89564 10.6118 5.90819 10.8348C5.93737 11.406 5.9709 11.9769 6.00868 12.5476C6.03143 12.864 6.05082 13.1807 6.06674 13.4975C6.07858 13.6951 6.09732 13.8939 6.10033 14.0918C5.696 13.9218 5.30059 13.7292 4.90544 13.541L3.94884 13.0893C3.58358 12.9138 3.21774 12.7277 2.84038 12.5765C2.78464 12.1427 2.73245 11.7086 2.68389 11.2741C2.66655 11.131 2.64259 10.9886 2.62498 10.8455C2.54006 10.0998 2.44575 9.35511 2.34194 8.61156L2.34199 8.61142Z" fill="#004917"/>
<path d="M1.46303 8.23549C1.55345 8.26331 1.64023 8.30839 1.72604 8.34706C1.85902 8.40823 1.99386 8.46544 2.13061 8.51865C2.1715 8.92078 2.23814 9.32283 2.29122 9.72387C2.41272 10.6412 2.53611 11.5619 2.63216 12.482C2.40982 12.3848 2.19197 12.2762 1.97393 12.1707C1.93544 12.0047 1.92894 11.8218 1.90819 11.6525L1.78379 10.6891C1.73608 10.3104 1.69243 9.93064 1.64041 9.55252C1.58002 9.11353 1.51137 8.67599 1.46303 8.23549Z" fill="#004917"/>
<path d="M12.2078 9.32735C12.2325 9.32597 12.2621 9.32787 12.2856 9.33549C12.3541 9.35766 12.3923 9.42262 12.4241 9.47939L12.4152 9.47972L12.4003 9.48048C12.3714 9.48177 12.3421 9.48183 12.3143 9.49042C12.2199 9.51966 12.1455 9.59593 12.1042 9.67909C12.0579 9.77222 12.034 9.90794 12.0749 10.0056C12.0927 10.0482 12.1252 10.0853 12.1699 10.104C12.1843 10.11 12.1959 10.1153 12.2088 10.1241L12.2018 10.1402C12.1828 10.1472 12.1636 10.1545 12.144 10.1599C12.0858 10.1761 12.0257 10.1738 11.9728 10.1442C11.9078 10.1079 11.8699 10.0416 11.8537 9.97375C11.8182 9.82502 11.8625 9.64259 11.9466 9.51456C12.0087 9.42013 12.0913 9.35316 12.2078 9.32735Z" fill="#004917"/>
<path fill-rule="evenodd" clip-rule="evenodd" d="M13.0624 7.48208C13.085 7.52748 13.075 8.02297 13.0747 8.10802L13.0717 8.9252C13.0724 9.06275 13.0918 9.21426 13.0714 9.3495C13.0514 9.48165 12.9185 9.73958 12.863 9.87818C12.6361 10.4448 12.395 11.0062 12.1812 11.5775C11.8594 11.3036 11.5327 11.0349 11.2011 10.7716C11.0611 10.6594 10.9268 10.5395 10.7894 10.4244C10.7741 10.0203 10.7615 9.61607 10.7515 9.21181C10.7433 8.94932 10.7227 8.68378 10.727 8.42138C10.8103 8.39381 10.8935 8.36401 10.9798 8.34583C10.9817 8.42015 10.9656 8.50417 10.9918 8.57564C11.0208 8.65476 11.0972 8.69027 11.1723 8.72299C11.326 8.7032 11.7028 8.52511 11.8657 8.46043C12.0142 8.40149 12.6271 8.1893 12.7155 8.10476C12.8686 7.95824 12.8586 7.74848 12.8615 7.55923C12.9276 7.53544 12.9915 7.50899 13.0554 7.48042L13.0624 7.48208ZM12.4041 9.17493C12.3207 9.13535 12.2305 9.13206 12.1394 9.13939C11.9481 9.19917 11.8265 9.31262 11.7361 9.48138C11.6435 9.65411 11.6132 9.88318 11.68 10.0683C11.7184 10.1746 11.7885 10.2712 11.8976 10.3222C11.9763 10.3589 12.0711 10.3683 12.1568 10.3513C12.3389 10.2953 12.4628 10.1968 12.5499 10.0345C12.645 9.85746 12.6849 9.61281 12.6174 9.42164C12.5812 9.31875 12.5082 9.22433 12.4041 9.17493Z" fill="#004917"/>
<path d="M15.5531 7.33899C15.5632 7.33957 15.5572 7.33824 15.5693 7.34741C15.5699 7.4896 15.5476 7.63812 15.5376 7.78057L15.4567 8.84113L15.348 10.1752C15.3232 10.493 15.3057 10.8123 15.2694 11.1291C15.0421 11.2185 14.8206 11.3179 14.5995 11.4201L14.5835 11.4225C14.546 11.366 14.7645 8.00693 14.7672 7.63818C15.0311 7.54316 15.2932 7.44344 15.5532 7.33903L15.5531 7.33899Z" fill="#004917"/>
<path d="M0.975143 7.19026C1.40932 7.37071 1.83454 7.57309 2.26566 7.76016L6.00431 9.34908C6.32399 9.48512 6.64993 9.6161 6.96061 9.76978C6.95826 9.985 6.98386 10.2371 6.96377 10.4466L6.94765 10.4519C6.59441 10.2875 6.23617 10.1334 5.88027 9.97441C4.98091 9.56918 4.0779 9.17132 3.17123 8.78088C2.62832 8.54579 2.09051 8.30375 1.55212 8.05969C1.35005 7.96811 1.14006 7.8885 0.941445 7.79084C0.940425 7.59057 0.959628 7.38995 0.975193 7.19036L0.975143 7.19026Z" fill="#004917"/>
<path d="M10.5178 8.49905C10.5541 8.54535 10.551 8.99503 10.5552 9.08779C9.60497 9.45532 8.6586 9.83175 7.71622 10.217C7.53716 10.2898 7.3611 10.3688 7.18173 10.4407L7.16169 10.4442C7.14342 10.412 7.14871 9.85217 7.14818 9.76264C7.54906 9.61604 7.94844 9.46587 8.34634 9.31211C9.06835 9.03794 9.79142 8.76245 10.5178 8.49905Z" fill="#004917"/>
<path d="M10.9515 7.22349C10.9716 7.31114 10.9628 7.41937 10.9657 7.50953L10.9839 8.12298C10.8058 8.20384 10.6117 8.26464 10.4271 8.33201L9.49779 8.67741L8.20005 9.16594C7.86436 9.29469 7.52847 9.43258 7.18715 9.54712L7.15471 9.55257C7.13422 9.53099 7.14631 8.67123 7.14698 8.57947C7.52431 8.42625 7.91542 8.29685 8.29953 8.15905C9.17972 7.84323 10.065 7.53897 10.9422 7.21615L10.9423 7.21611L10.9515 7.22349Z" fill="#004917"/>
<path d="M1.1013 6.21565C1.27331 6.27385 1.44249 6.34527 1.61113 6.41176L2.57818 6.79928L5.59225 8.03011C6.04696 8.21722 6.49689 8.41763 6.95639 8.5941C6.95497 8.91071 6.96002 9.22779 6.95559 9.54428C6.93536 9.55044 6.90116 9.53288 6.88041 9.52559C6.7743 9.48482 6.67151 9.43386 6.56673 9.38978C6.21862 9.24239 5.87195 9.09193 5.52677 8.9385C5.25453 8.81821 4.97484 8.71381 4.70044 8.59822C4.54098 8.53105 4.38678 8.45335 4.22777 8.38531C3.15006 7.92398 2.06302 7.48169 0.998797 6.99255C1.01081 6.73723 1.04578 6.46611 1.1013 6.21565Z" fill="#004917"/>
<path d="M11.348 6.8832C11.367 6.87994 11.3584 6.87811 11.3737 6.88803C11.3952 6.96952 11.3837 7.0734 11.3848 7.15803L11.3915 7.70881C11.3929 7.83508 11.3876 7.96572 11.4082 8.09065C11.5147 8.19192 11.697 8.23106 11.8361 8.27535C11.7147 8.32915 11.5856 8.37212 11.4622 8.42227C11.3693 8.46078 11.2756 8.49727 11.1809 8.53171C11.173 8.41021 11.1769 8.28609 11.1754 8.16426C11.1728 7.93043 11.1684 7.6966 11.1622 7.46281C11.1587 7.33561 11.1706 7.17845 11.1299 7.05792L11.1024 6.97839C11.1816 6.94136 11.2654 6.91274 11.348 6.8832Z" fill="#004917"/>
<path d="M3.46457 2.97151C4.17484 2.9318 4.8754 3.33709 5.4094 3.74244C6.53531 4.59719 7.3185 5.98809 7.69086 7.29042C7.76727 7.55768 7.84253 7.83207 7.87402 8.10783C7.73868 8.16129 7.59926 8.20553 7.46206 8.25443C7.34039 8.29779 7.22045 8.34592 7.09701 8.38455C6.93794 7.54823 6.6813 6.70464 6.2861 5.93955C6.19923 5.77139 6.09884 5.60963 6.00044 5.44732C5.9161 5.31606 5.82756 5.18736 5.73488 5.06117C5.32775 4.50649 4.60869 3.84653 3.88245 3.72616C3.50637 3.66382 3.13804 3.73722 2.82586 3.94712C2.24083 4.34057 1.96448 5.09018 1.82342 5.72806C1.78497 5.90202 1.7609 6.07793 1.73061 6.25319C1.52955 6.19218 1.33103 6.10542 1.13831 6.02343C1.28496 5.34829 1.47513 4.68504 1.83135 4.07899C1.927 3.91622 2.02826 3.75943 2.15818 3.61857C2.52407 3.22189 2.90016 3.00855 3.46467 2.97151H3.46457Z" fill="#004917"/>
<path d="M3.50263 3.88781C3.82648 3.8372 4.26377 4.01038 4.5324 4.17361C5.40892 4.70613 6.06369 5.76186 6.41521 6.6694C6.62904 7.22139 6.77314 7.78809 6.90471 8.36145C6.77541 8.32198 6.65026 8.26759 6.52535 8.21727C6.28872 8.12107 6.05275 8.02333 5.81754 7.92404L3.05944 6.79034C2.80158 6.68253 2.54071 6.58122 2.28218 6.47476C2.16107 6.4249 2.03703 6.3779 1.91974 6.32054C1.9232 6.19314 1.95422 6.0588 1.97829 5.93349C2.08086 5.40027 2.25115 4.84919 2.60213 4.41061C2.82816 4.12814 3.12819 3.93561 3.50263 3.88781Z" fill="#004917"/>
<path d="M12.1848 6.27581C12.2411 6.27058 12.2936 6.26908 12.349 6.28211C12.4899 6.31525 12.5957 6.40304 12.6703 6.5175L12.6711 7.84967C12.5197 7.97276 12.3586 8.06686 12.1842 8.15706L12.0752 8.14116C11.9064 8.10621 11.7427 8.0677 11.5855 7.99807C11.5846 7.71987 11.577 7.44109 11.5715 7.1629C11.5693 7.05301 11.5499 6.90384 11.5707 6.79952C11.5813 6.7464 11.6121 6.69387 11.6434 6.649C11.772 6.46423 11.9526 6.32119 12.1848 6.27581Z" fill="#004917"/>
<path d="M10.7962 5.94665L10.8046 5.94859C10.8533 6.02271 10.9213 6.87517 10.9283 7.02478C10.8193 7.07841 10.6947 7.1119 10.5792 7.15216L10.0294 7.34855C9.37281 7.58564 8.71487 7.81917 8.05551 8.04914L8.0413 7.96564C7.98654 7.62745 7.88781 7.29445 7.79291 6.96481C8.02553 6.87256 8.26853 6.79977 8.50519 6.71711L9.93782 6.22801C10.2236 6.13345 10.5119 6.04464 10.7963 5.9466L10.7962 5.94665Z" fill="#004917"/>
<path d="M15.6317 6.51632C15.6487 6.54812 15.5928 7.05499 15.5835 7.13048C15.3575 7.21314 15.1347 7.30525 14.9108 7.3929L13.2771 8.0347C13.2368 7.98849 13.2585 7.49632 13.2587 7.40866C13.4951 7.3123 13.7377 7.2274 13.9767 7.13682L15.6256 6.51405L15.6317 6.51632Z" fill="#004917"/>
<path d="M16.0015 5.33003C16.018 5.32706 16.0089 5.32711 16.0288 5.3323C16.0905 5.44572 16.1413 5.97731 16.1462 6.12534C16.0226 6.16036 15.9021 6.21251 15.7813 6.25574C15.4242 6.3837 15.0733 6.52228 14.7196 6.65794C14.1395 6.88033 13.5494 7.08315 12.9734 7.31447L12.8541 7.36554C12.8396 7.05353 12.8487 6.739 12.8498 6.42662C13.4648 6.20724 14.0861 6.00258 14.7025 5.78685L15.4675 5.51757C15.645 5.45418 15.8215 5.38684 16.0016 5.32998L16.0015 5.33003Z" fill="#004917"/>
<path d="M10.2629 4.29857L10.278 4.30345C10.3293 4.35975 10.3589 4.45178 10.3889 4.52057C10.566 4.92764 10.6859 5.33561 10.7711 5.76816L8.65268 6.47599C8.34271 6.57939 8.03498 6.68852 7.72953 6.8034L7.67986 6.66282C7.56887 6.36279 7.43323 6.05993 7.28202 5.77615C7.19972 5.62168 7.10347 5.47288 7.02494 5.31716C7.22621 5.2394 7.44056 5.18008 7.64732 5.11632C7.93476 5.02532 8.22296 4.9364 8.51187 4.84959C9.09672 4.66914 9.68045 4.48547 10.263 4.29852L10.2629 4.29857Z" fill="#004917"/>
<path d="M8.99971 1.31378C9.12666 1.32689 9.26812 1.37873 9.39002 1.41531C10.0462 1.61231 10.6403 1.93362 11.1257 2.39796C11.3069 2.57125 11.4627 2.75911 11.6109 2.95816C12.3203 3.91087 12.6157 5.04089 12.6081 6.19596C12.4646 6.13333 12.3222 6.08613 12.1624 6.10569C11.7851 6.15195 11.5951 6.44304 11.3848 6.70381C11.289 6.72849 11.1955 6.76059 11.1016 6.79109C11.0902 6.66629 11.0778 6.54151 11.0644 6.41687C11.0327 6.21397 11.0133 6.01009 10.9761 5.80773C10.8379 5.05575 10.5751 4.29769 10.1174 3.66273C9.3008 2.53004 8.32775 2.10014 6.93746 1.85135C7.16934 1.76797 7.49757 1.70662 7.74284 1.64545C8.16256 1.53756 8.58154 1.42702 8.99971 1.31378Z" fill="#004917"/>
<path d="M14.8883 4.47167C14.9425 4.51566 15.1225 5.31084 15.1467 5.44297C14.9486 5.50158 14.7521 5.57652 14.5571 5.64414C14.0203 5.83025 13.4878 6.0297 12.9467 6.2042C12.8938 6.22117 12.8406 6.23714 12.787 6.2521C12.7838 5.89401 12.7596 5.54351 12.7269 5.18684C13.0391 5.06614 13.3654 4.9687 13.6844 4.86526L14.8734 4.47248L14.8733 4.47253L14.8883 4.47167Z" fill="#004917"/>
<path d="M11.8524 0.383424C12.4354 0.336624 13.0183 0.595162 13.4766 0.916974C14.27 1.47413 14.884 2.29661 15.2977 3.13737C15.4467 3.44649 15.5758 3.76286 15.6849 4.08652C15.8057 4.43459 15.9133 4.78798 15.9701 5.15101C15.7544 5.2361 15.5293 5.32078 15.3052 5.38375C15.2825 5.30047 15.2706 5.21177 15.2537 5.12701C15.1967 4.76356 15.055 4.32277 14.9221 3.97343C14.8444 3.7689 14.7671 3.56475 14.6745 3.36566C14.6544 3.32192 14.6337 3.27835 14.6124 3.23512C14.5912 3.19184 14.5693 3.14886 14.5469 3.10618C14.5245 3.06344 14.5015 3.021 14.4779 2.97885C14.4543 2.9367 14.4302 2.89478 14.4054 2.85322C14.3807 2.81167 14.3554 2.77037 14.3296 2.72945C14.3037 2.68847 14.2774 2.64782 14.2504 2.60751C14.2234 2.56721 14.1959 2.5272 14.1679 2.48757C14.1399 2.44789 14.1113 2.40858 14.0822 2.36961C14.0531 2.33066 14.0234 2.29208 13.9933 2.25383C13.9631 2.21558 13.9324 2.17768 13.9013 2.14018C13.8701 2.10268 13.8383 2.06555 13.8061 2.02881C13.774 1.99207 13.7413 1.95574 13.7081 1.91984C13.6749 1.8839 13.6413 1.84835 13.6071 1.81325C13.573 1.77814 13.5383 1.74347 13.5033 1.70916C13.4682 1.67489 13.4326 1.64101 13.3966 1.60758C13.3606 1.57415 13.3242 1.54116 13.2872 1.50865C12.7905 1.0704 12.0397 0.679294 11.3491 0.65692C11.1991 0.652061 11.0515 0.698138 10.8998 0.703166C11.1751 0.504033 11.5118 0.412885 11.8523 0.383471L11.8524 0.383424Z" fill="#004917"/>
<path d="M9.16553 2.93559C9.16961 2.93592 9.17379 2.93558 9.17774 2.93663C9.24031 2.95377 9.32672 3.05216 9.37315 3.09586C9.71402 3.4165 9.98442 3.73626 10.2023 4.14422C10.0533 4.17581 9.90609 4.22767 9.7607 4.27183C9.5274 4.34268 9.29416 4.41244 9.06188 4.48635L7.60403 4.93801C7.50208 4.97002 6.98885 5.14637 6.92947 5.14306C6.91312 5.14213 6.90938 5.13009 6.89989 5.11883C6.59187 4.64865 6.21925 4.22442 5.80604 3.83351C6.25818 3.72999 6.70779 3.60436 7.15571 3.48537C7.82788 3.30949 8.49784 3.12627 9.16548 2.93568L9.16553 2.93559Z" fill="#004917"/>
<path d="M14.2069 2.91391C14.2504 2.95396 14.2833 3.0249 14.3124 3.07546C14.535 3.46267 14.6965 3.88056 14.8415 4.29819C14.5021 4.40599 14.1642 4.51774 13.8278 4.63346C13.4828 4.74889 13.1372 4.86043 12.7937 4.98009L12.6946 5.00939C12.6195 4.48023 12.4055 3.96091 12.1649 3.48144C12.8359 3.28398 13.5094 3.09483 14.1856 2.914C14.1914 2.91258 14.2007 2.91378 14.2069 2.91391Z" fill="#004917"/>
<path d="M7.35599 2.123C7.42601 2.11835 7.53955 2.1622 7.6082 2.18013C8.11886 2.31328 8.58359 2.50574 9.01417 2.79959C8.90606 2.83684 8.79157 2.86109 8.68071 2.89071L8.06008 3.05771C7.34069 3.24951 6.62009 3.43727 5.89835 3.62103L5.62932 3.68986C5.57969 3.64792 5.52913 3.607 5.47765 3.56712C5.42617 3.52727 5.37377 3.48847 5.32051 3.45072C5.26726 3.41302 5.21314 3.37643 5.1582 3.34091C5.10326 3.30542 5.04755 3.27099 4.99107 3.23777C4.93457 3.20454 4.87727 3.17246 4.81931 3.14158C4.76131 3.11071 4.70262 3.08099 4.64329 3.0525C4.58396 3.02401 4.52402 2.99672 4.4634 2.97071C4.40278 2.94465 4.34162 2.91989 4.27989 2.89635C4.6887 2.78733 5.1036 2.69395 5.51471 2.5926L7.35599 2.123Z" fill="#004917"/>
<path d="M13.0864 1.56488C13.259 1.61117 14.0022 2.56356 14.1203 2.75482C13.774 2.84037 13.4324 2.94312 13.0887 3.03769C12.7578 3.12881 12.426 3.20888 12.1038 3.32623C12.0723 3.32657 12.0423 3.25944 12.0273 3.23564C11.7709 2.82777 11.4557 2.42812 11.0738 2.11737C11.2687 2.06718 11.4612 2.00927 11.656 1.9587C12.134 1.83469 12.6164 1.71442 13.0864 1.56488Z" fill="#004917"/>
<path d="M6.53795 1.98407C6.70739 2.00155 6.81752 2.01763 6.98602 2.04495C6.94012 2.05859 4.19247 2.79546 4.14666 2.80807C3.94096 2.80807 3.94096 2.73536 3.37528 2.80807C4.0181 2.58995 6.31363 2.04144 6.53795 1.98407Z" fill="#004917"/>
<path d="M11.3571 0.845168C11.3621 0.844498 11.3671 0.843767 11.3721 0.84318C11.6604 0.810178 12.2749 1.06072 12.5386 1.19814C12.669 1.26555 12.7924 1.34284 12.9089 1.43003C12.3028 1.61614 11.6839 1.76001 11.0741 1.93485L10.9097 1.97925C10.4665 1.65245 9.87194 1.41031 9.34065 1.23279C9.50304 1.20099 9.8225 1.10156 9.98347 1.06314L10.7806 0.820791L11.3571 0.845168Z" fill="#004917"/>
</svg>
