<svg width="32" height="32" viewBox="0 0 32 32" fill="none" xmlns="http://www.w3.org/2000/svg">
<g clip-path="url(#clip0_3535_11719)">
<path d="M16.0002 10.6668C13.0535 10.6668 10.6668 13.0535 10.6668 16.0002C10.6668 18.9468 13.0535 21.3335 16.0002 21.3335C18.9468 21.3335 21.3335 18.9468 21.3335 16.0002C21.3335 13.0535 18.9468 10.6668 16.0002 10.6668ZM27.9202 14.6668C27.3068 9.10683 22.8935 4.6935 17.3335 4.08016V1.3335H14.6668V4.08016C9.10683 4.6935 4.6935 9.10683 4.08016 14.6668H1.3335V17.3335H4.08016C4.6935 22.8935 9.10683 27.3068 14.6668 27.9202V30.6668H17.3335V27.9202C22.8935 27.3068 27.3068 22.8935 27.9202 17.3335H30.6668V14.6668H27.9202ZM16.0002 25.3335C10.8402 25.3335 6.66683 21.1602 6.66683 16.0002C6.66683 10.8402 10.8402 6.66683 16.0002 6.66683C21.1602 6.66683 25.3335 10.8402 25.3335 16.0002C25.3335 21.1602 21.1602 25.3335 16.0002 25.3335Z" fill="#07CB38"/>
</g>
<defs>
<clipPath id="clip0_3535_11719">
<rect width="32" height="32" fill="white"/>
</clipPath>
</defs>
</svg>
