<svg width="32" height="32" viewBox="0 0 32 32" fill="none" xmlns="http://www.w3.org/2000/svg">
<g clip-path="url(#clip0_3295_16056)">
<path d="M24 10.6666H22.6666V7.99992C22.6666 4.31992 19.68 1.33325 16 1.33325C12.32 1.33325 9.33331 4.31992 9.33331 7.99992V10.6666H7.99998C6.53331 10.6666 5.33331 11.8666 5.33331 13.3333V26.6666C5.33331 28.1333 6.53331 29.3333 7.99998 29.3333H24C25.4666 29.3333 26.6666 28.1333 26.6666 26.6666V13.3333C26.6666 11.8666 25.4666 10.6666 24 10.6666ZM12 7.99992C12 5.78659 13.7866 3.99992 16 3.99992C18.2133 3.99992 20 5.78659 20 7.99992V10.6666H12V7.99992ZM24 26.6666H7.99998V13.3333H24V26.6666ZM16 22.6666C17.4666 22.6666 18.6666 21.4666 18.6666 19.9999C18.6666 18.5333 17.4666 17.3333 16 17.3333C14.5333 17.3333 13.3333 18.5333 13.3333 19.9999C13.3333 21.4666 14.5333 22.6666 16 22.6666Z" fill="white"/>
</g>
<defs>
<clipPath id="clip0_3295_16056">
<rect width="32" height="32" fill="white"/>
</clipPath>
</defs>
</svg>
