<svg width="33" height="32" viewBox="0 0 33 32" fill="none" xmlns="http://www.w3.org/2000/svg">
<rect x="1.3" y="0.8" width="30.4" height="30.4" rx="15.2" fill="#1E1E1E" fill-opacity="0.5"/>
<rect x="1.3" y="0.8" width="30.4" height="30.4" rx="15.2" stroke="#F97C39" stroke-width="1.6"/>
<g clip-path="url(#clip0_390_8599)">
<path d="M12.5001 11.1992H20.5001L16.4921 16.2392L12.5001 11.1992ZM10.3001 10.8872C11.9161 12.9592 14.9001 16.7992 14.9001 16.7992V21.5992C14.9001 22.0392 15.2601 22.3992 15.7001 22.3992H17.3001C17.7401 22.3992 18.1001 22.0392 18.1001 21.5992V16.7992C18.1001 16.7992 21.0761 12.9592 22.6921 10.8872C23.1001 10.3592 22.7241 9.59924 22.0601 9.59924H10.9321C10.2681 9.59924 9.89214 10.3592 10.3001 10.8872Z" fill="#F97C39"/>
</g>
<defs>
<clipPath id="clip0_390_8599">
<rect x="6.90039" y="6.40002" width="19.2" height="19.2" rx="3.2" fill="white"/>
</clipPath>
</defs>
</svg>
