<svg width="20" height="20" viewBox="0 0 20 20" fill="none" xmlns="http://www.w3.org/2000/svg">
<g clip-path="url(#clip0_453_14133)">
<path d="M13.3333 1.66675C13.7936 1.66675 14.1666 2.03984 14.1666 2.50008L14.1666 9.16675L12.5 9.16675L12.5 2.50008C12.5 2.03984 12.8731 1.66675 13.3333 1.66675Z" fill="#F97C39"/>
<path d="M6.66665 18.3334C7.12688 18.3334 7.49998 17.9603 7.49998 17.5001L7.49998 10.8334L5.83331 10.8334L5.83331 17.5001C5.83331 17.9603 6.20641 18.3334 6.66665 18.3334Z" fill="#F97C39"/>
<path d="M14.1666 15.8334L14.1666 17.5001C14.1666 17.9603 13.7935 18.3334 13.3333 18.3334C12.8731 18.3334 12.5 17.9603 12.5 17.5001L12.5 15.8334L14.1666 15.8334Z" fill="#F97C39"/>
<path d="M7.49998 4.16675L7.49998 2.50008C7.49998 2.03984 7.12688 1.66675 6.66665 1.66675C6.20641 1.66675 5.83331 2.03984 5.83331 2.50008L5.83331 4.16675L7.49998 4.16675Z" fill="#F97C39"/>
<path d="M13.3333 15.0001C11.9526 15.0001 10.8333 13.8808 10.8333 12.5001C10.8333 11.1194 11.9526 10.0001 13.3333 10.0001C14.714 10.0001 15.8333 11.1194 15.8333 12.5001C15.8333 13.8808 14.714 15.0001 13.3333 15.0001Z" fill="#F97C39"/>
<path d="M6.66665 5.00008C5.28593 5.00008 4.16665 6.11937 4.16665 7.50008C4.16665 8.88079 5.28593 10.0001 6.66665 10.0001C8.04736 10.0001 9.16665 8.88079 9.16665 7.50008C9.16665 6.11937 8.04736 5.00008 6.66665 5.00008Z" fill="#F97C39"/>
</g>
<defs>
<clipPath id="clip0_453_14133">
<rect width="20" height="20" fill="white"/>
</clipPath>
</defs>
</svg>
