<svg width="34" height="34" viewBox="0 0 34 34" fill="none" xmlns="http://www.w3.org/2000/svg">
<g clip-path="url(#clip0_3344_13492)">
<path d="M16.9855 2.83325C9.16551 2.83325 2.83301 9.17992 2.83301 16.9999C2.83301 24.8199 9.16551 31.1666 16.9855 31.1666C24.8197 31.1666 31.1663 24.8199 31.1663 16.9999C31.1663 9.17992 24.8197 2.83325 16.9855 2.83325ZM16.9997 28.3333C10.738 28.3333 5.66634 23.2616 5.66634 16.9999C5.66634 10.7383 10.738 5.66659 16.9997 5.66659C23.2613 5.66659 28.333 10.7383 28.333 16.9999C28.333 23.2616 23.2613 28.3333 16.9997 28.3333ZM17.708 9.91658H15.583V18.4166L23.0205 22.8791L24.083 21.1366L17.708 17.3541V9.91658Z" fill="#07CB38"/>
</g>
<defs>
<clipPath id="clip0_3344_13492">
<rect width="34" height="34" fill="white"/>
</clipPath>
</defs>
</svg>
