<svg width="32" height="32" viewBox="0 0 32 32" fill="none" xmlns="http://www.w3.org/2000/svg">
<rect x="0.8" y="0.8" width="30.4" height="30.4" rx="15.2" fill="#1E1E1E" fill-opacity="0.5"/>
<rect x="0.8" y="0.8" width="30.4" height="30.4" rx="15.2" stroke="#F97C39" stroke-width="1.6"/>
<g clip-path="url(#clip0_3535_11697)">
<path d="M18.7998 17.5998H18.1678L17.9438 17.3838C18.7278 16.4718 19.1998 15.2878 19.1998 13.9998C19.1998 11.1278 16.8718 8.7998 13.9998 8.7998C11.1278 8.7998 8.7998 11.1278 8.7998 13.9998C8.7998 16.8718 11.1278 19.1998 13.9998 19.1998C15.2878 19.1998 16.4718 18.7278 17.3838 17.9438L17.5998 18.1678V18.7998L21.5998 22.7918L22.7918 21.5998L18.7998 17.5998ZM13.9998 17.5998C12.0078 17.5998 10.3998 15.9918 10.3998 13.9998C10.3998 12.0078 12.0078 10.3998 13.9998 10.3998C15.9918 10.3998 17.5998 12.0078 17.5998 13.9998C17.5998 15.9918 15.9918 17.5998 13.9998 17.5998Z" fill="#F97C39"/>
</g>
<defs>
<clipPath id="clip0_3535_11697">
<rect width="19.2" height="19.2" fill="white" transform="translate(6.3999 6.3999)"/>
</clipPath>
</defs>
</svg>
