<svg width="33" height="32" viewBox="0 0 33 32" fill="none" xmlns="http://www.w3.org/2000/svg">
<rect x="0.5" width="32" height="32" rx="16" fill="#F97C39"/>
<g clip-path="url(#clip0_390_8676)">
<path d="M19.3008 17.6H18.6688L18.4448 17.384C19.2288 16.472 19.7008 15.288 19.7008 14C19.7008 11.128 17.3728 8.80005 14.5008 8.80005C11.6288 8.80005 9.30078 11.128 9.30078 14C9.30078 16.872 11.6288 19.2 14.5008 19.2C15.7888 19.2 16.9728 18.728 17.8848 17.944L18.1008 18.168V18.8L22.1008 22.792L23.2928 21.6L19.3008 17.6V17.6ZM14.5008 17.6C12.5088 17.6 10.9008 15.992 10.9008 14C10.9008 12.008 12.5088 10.4 14.5008 10.4C16.4928 10.4 18.1008 12.008 18.1008 14C18.1008 15.992 16.4928 17.6 14.5008 17.6Z" fill="#1E1E1E"/>
</g>
<defs>
<clipPath id="clip0_390_8676">
<rect width="19.2" height="19.2" fill="white" transform="translate(6.90039 6.40002)"/>
</clipPath>
</defs>
</svg>
