<svg width="32" height="32" viewBox="0 0 32 32" fill="none" xmlns="http://www.w3.org/2000/svg">
<g opacity="0.5" filter="url(#filter0_d_3032_19396)">
<path d="M21.0243 0.0711451C21.5691 0.0430528 22.1246 0.156176 22.6259 0.352194C23.9655 0.87608 25.1106 2.01001 25.883 3.14533C26.2904 3.74407 26.6269 4.3917 26.9146 5.04869C27.0083 5.26551 27.0962 5.48441 27.1784 5.70531C27.2607 5.92621 27.337 6.14894 27.4075 6.37349C27.478 6.59804 27.5425 6.82404 27.6012 7.0516C27.6598 7.27917 27.7124 7.50793 27.7591 7.73795C27.8487 8.1599 27.9274 8.5728 27.9595 9.00273C27.9675 9.10969 28.0081 9.32953 27.96 9.42625C27.8948 9.55709 27.3948 9.69297 27.248 9.74287C27.152 10.6865 27.068 11.6311 26.9961 12.5767C26.8874 14.2097 26.7556 15.841 26.6007 17.4706C26.583 17.6482 26.5658 18.1742 26.4983 18.3075C26.4585 18.3861 26.3268 18.4084 26.2487 18.4396C25.78 18.6271 25.3199 18.8373 24.8587 19.0408C24.0819 19.3758 23.3097 19.7202 22.5423 20.0741L16.3779 22.8174C15.775 23.0806 15.1781 23.3548 14.5734 23.6145C14.3997 23.6891 14.23 23.773 14.0536 23.8417C13.3943 23.4976 12.7123 23.1915 12.0426 22.8662L7.51721 20.6627L6.38495 20.1131C6.23336 20.0389 6.01884 19.9734 5.9001 19.8582C5.83379 19.6572 5.82966 19.4138 5.80485 19.2036L5.65133 17.9129L4.94206 12.3287C4.73106 12.2396 4.49932 12.1535 4.30342 12.0384C4.23119 11.9959 4.18675 11.9564 4.16933 11.8761C4.11664 11.6335 4.17278 10.9736 4.1958 10.7036C4.344 8.96816 4.77077 6.91699 5.81071 5.45166C6.38282 4.64553 7.23996 4.02298 8.29333 3.94851C8.44905 3.93751 8.61594 3.9328 8.77172 3.94951C8.84236 3.95705 8.91846 3.98257 8.98877 3.98257C9.06766 3.98257 9.16051 3.9497 9.23654 3.93135C9.89154 3.77298 10.5447 3.60819 11.196 3.437C11.5684 3.34179 11.9431 3.23382 12.3214 3.16293C12.3724 2.94762 12.4854 2.66437 12.6488 2.50204C12.9945 2.40576 13.3475 2.33323 13.6967 2.24952L15.1223 1.89651C15.6274 1.77308 16.1579 1.60887 16.6611 1.50448C16.7614 1.48368 16.8613 1.54326 16.9674 1.52333C17.2334 1.4735 17.5004 1.39362 17.7632 1.32889C18.0975 1.2465 18.443 1.17334 18.7713 1.07185C18.896 1.03326 18.9769 0.904863 19.0756 0.826683C19.6397 0.379469 20.2851 0.106842 21.0247 0.0713336L21.0243 0.0711451Z" fill="#10FF08"/>
<path d="M9.58781 20.1422C9.92119 20.2978 10.2586 20.4457 10.5898 20.6056L12.7436 21.6344C13.1093 21.8089 13.5234 22.0339 13.8987 22.1751C13.9111 22.5181 13.9491 22.8599 13.9469 23.2035C13.6979 23.1013 13.4559 22.973 13.2132 22.8574C12.7319 22.6336 12.2533 22.4043 11.7777 22.1697C10.4779 21.5544 9.18247 20.9307 7.89151 20.2988L6.8002 19.7541C6.65999 19.6836 6.52584 19.5996 6.38091 19.5384C6.32457 19.2295 6.29608 18.9122 6.25677 18.6009L9.58781 20.1422Z" fill="#004917"/>
<path d="M26.1115 17.003C26.1397 17.0631 26.06 17.8496 26.0395 17.9677C25.362 18.2863 24.6674 18.5745 23.9794 18.8722L21.5463 19.9475L17.098 21.9307C16.1482 22.3546 15.2006 22.792 14.2421 23.1976C14.2358 22.8673 14.2251 22.5371 14.2101 22.2069L26.1074 16.9984C26.1088 16.9999 26.1106 17.0012 26.1115 17.003Z" fill="#004917"/>
<path d="M15.2923 15.4662C15.3465 15.5675 15.3646 20.7769 15.3852 21.3678C15.2391 21.4426 14.2647 21.8914 14.191 21.8877L14.1831 21.8493C14.135 20.6231 14.0964 19.3966 14.0673 18.1697C14.0488 17.4392 14.0503 16.7008 13.9913 15.9723C14.4116 15.8298 14.8306 15.6124 15.2643 15.4637L15.2923 15.4662Z" fill="#004917"/>
<path d="M12.3425 15.3781C12.7745 15.5657 13.2906 15.7914 13.7043 16.0073C13.7295 16.2559 13.7307 16.5098 13.74 16.7594C13.7585 17.3756 13.7733 17.9919 13.7842 18.6083L13.8523 20.8355C13.8644 21.1844 13.8902 21.5336 13.8935 21.8827C13.5026 21.6728 13.0934 21.4982 12.6931 21.3054C12.6784 20.7032 12.6318 20.1012 12.5976 19.4998L12.3425 15.3781Z" fill="#004917"/>
<path d="M25.0975 11.5908L25.1084 11.5994C25.1462 11.7082 25.0527 12.9254 25.0394 13.1568L24.9058 15.7049C24.8782 16.2217 24.8296 16.7426 24.831 17.2598C24.1891 17.5172 23.5659 17.8272 22.9319 18.1024L21.0251 18.9208C20.601 19.0993 20.1718 19.2694 19.7516 19.4557L17.4214 20.4827C16.8416 20.7405 16.2627 21.0105 15.6739 21.2489L15.6201 17.3499C15.6159 16.6739 15.5857 15.9948 15.5953 15.3193C15.8095 15.2397 16.0193 15.1465 16.2316 15.062L17.6367 14.5008C18.1235 14.3045 18.6217 14.1254 19.1027 13.9173C19.1434 14.5291 19.1426 15.1491 19.1515 15.7622C19.511 16.09 19.9053 16.3856 20.2774 16.7003L21.1612 17.4347C21.3068 17.555 21.4624 17.7146 21.6308 17.8043C21.7333 17.5732 21.8198 17.3364 21.9154 17.1028C22.1631 16.4994 22.4073 15.8947 22.6479 15.2888L22.9468 14.5648C23.0109 14.4088 23.0914 14.2463 23.1209 14.0806C23.1608 13.8563 23.1415 13.6042 23.1393 13.3762C23.1339 13.0327 23.1322 12.6892 23.1344 12.3456C23.7905 12.0979 24.4383 11.8317 25.0974 11.5906L25.0975 11.5908Z" fill="#004917"/>
<path d="M6.76299 12.9162C6.95002 12.9892 7.12818 13.0885 7.31222 13.1689L8.63842 13.7421C9.45764 14.0937 10.2721 14.4548 11.082 14.8254C11.4019 14.9682 11.7265 15.0996 12.0441 15.2474C12.0588 15.5815 12.0935 15.9168 12.1123 16.2513C12.1561 17.108 12.2063 17.9644 12.263 18.8205C12.2971 19.2951 12.3262 19.7701 12.3501 20.2453C12.3679 20.5417 12.396 20.8399 12.4005 21.1367C11.794 20.8817 11.2009 20.5929 10.6082 20.3105L9.17326 19.633C8.62537 19.3697 8.07662 19.0906 7.51057 18.8638C7.42696 18.2131 7.34867 17.562 7.27584 16.9102C7.24983 16.6955 7.21388 16.4819 7.18747 16.2673C7.06009 15.1487 6.91863 14.0317 6.76291 12.9164L6.76299 12.9162Z" fill="#004917"/>
<path d="M5.44455 12.3523C5.58018 12.394 5.71035 12.4616 5.83906 12.5196C6.03853 12.6114 6.24079 12.6972 6.44592 12.777C6.50725 13.3802 6.60721 13.9833 6.68683 14.5848C6.86908 15.9608 7.05417 17.3418 7.19825 18.722C6.86473 18.5762 6.53795 18.4133 6.21089 18.255C6.15315 18.006 6.14341 17.7317 6.11228 17.4777L5.92569 16.0327C5.85411 15.4647 5.78864 14.895 5.71062 14.3278C5.62002 13.6693 5.51705 13.013 5.44455 12.3523Z" fill="#004917"/>
<path d="M21.5617 13.99C21.5988 13.988 21.6431 13.9908 21.6784 14.0023C21.7811 14.0355 21.8384 14.1329 21.8862 14.2181L21.8728 14.2186L21.8505 14.2197C21.8071 14.2217 21.7631 14.2218 21.7214 14.2346C21.5798 14.2785 21.4683 14.3929 21.4063 14.5177C21.3369 14.6574 21.301 14.8609 21.3623 15.0074C21.389 15.0713 21.4378 15.1269 21.5049 15.155C21.5264 15.1639 21.5439 15.172 21.5633 15.1852L21.5526 15.2093C21.5242 15.2199 21.4954 15.2307 21.466 15.2389C21.3787 15.2632 21.2886 15.2597 21.2091 15.2153C21.1117 15.1608 21.0548 15.0614 21.0305 14.9596C20.9773 14.7366 21.0437 14.4629 21.17 14.2709C21.2631 14.1292 21.3869 14.0288 21.5617 13.99Z" fill="#004917"/>
<path fill-rule="evenodd" clip-rule="evenodd" d="M22.8437 11.2221C22.8775 11.2902 22.8624 12.0335 22.862 12.1611L22.8575 13.3868C22.8586 13.5931 22.8877 13.8204 22.8571 14.0233C22.8271 14.2215 22.6278 14.6084 22.5445 14.8163C22.2041 15.6663 21.8426 16.5083 21.5218 17.3652C21.0391 16.9544 20.549 16.5514 20.0517 16.1564C19.8417 15.9881 19.6402 15.8083 19.4341 15.6356C19.4112 15.0294 19.3922 14.4231 19.3772 13.8167C19.3649 13.423 19.3341 13.0247 19.3405 12.6311C19.4655 12.5897 19.5902 12.545 19.7197 12.5178C19.7225 12.6292 19.6984 12.7553 19.7377 12.8625C19.7813 12.9812 19.8958 13.0344 20.0084 13.0835C20.2391 13.0538 20.8042 12.7867 21.0486 12.6897C21.2713 12.6013 22.1907 12.283 22.3233 12.1562C22.5529 11.9364 22.5379 11.6217 22.5422 11.3379C22.6413 11.3022 22.7372 11.2625 22.833 11.2197L22.8437 11.2221ZM21.8562 13.7614C21.7311 13.7021 21.5957 13.6971 21.4591 13.7081C21.1721 13.7978 20.9898 13.968 20.8541 14.2211C20.7152 14.4802 20.6698 14.8238 20.77 15.1015C20.8276 15.2609 20.9327 15.4058 21.0964 15.4823C21.2144 15.5374 21.3566 15.5515 21.4852 15.5259C21.7583 15.4419 21.9441 15.2943 22.0749 15.0507C22.2175 14.7852 22.2773 14.4182 22.1761 14.1315C22.1217 13.9771 22.0123 13.8355 21.8562 13.7614Z" fill="#004917"/>
<path d="M26.5797 11.0075C26.5947 11.0084 26.5858 11.0064 26.604 11.0201C26.6049 11.2334 26.5714 11.4562 26.5565 11.6699L26.4351 13.2607L26.272 15.2619C26.2348 15.7386 26.2085 16.2175 26.1541 16.6926C25.8131 16.8267 25.4809 16.9758 25.1493 17.1292L25.1253 17.1328C25.0691 17.048 25.3967 12.0094 25.4007 11.4563C25.7967 11.3138 26.1898 11.1642 26.5797 11.0076L26.5797 11.0075Z" fill="#004917"/>
<path d="M4.71271 10.7844C5.36398 11.0551 6.00181 11.3587 6.64848 11.6393L12.2565 14.0226C12.736 14.2267 13.2249 14.4232 13.6909 14.6537C13.6874 14.9765 13.7258 15.3547 13.6957 15.6689L13.6715 15.6768C13.1416 15.4303 12.6043 15.1992 12.0704 14.9606C10.7214 14.3528 9.36685 13.756 8.00684 13.1703C7.19248 12.8177 6.38577 12.4546 5.57819 12.0886C5.27508 11.9512 4.96009 11.8318 4.66217 11.6853C4.66064 11.3849 4.68944 11.084 4.71279 10.7846L4.71271 10.7844Z" fill="#004917"/>
<path d="M19.0267 12.7476C19.0811 12.817 19.0765 13.4916 19.0828 13.6307C17.6575 14.182 16.2379 14.7466 14.8243 15.3245C14.5557 15.4337 14.2917 15.5522 14.0226 15.6601L13.9925 15.6652C13.9651 15.617 13.9731 14.7773 13.9723 14.643C14.5736 14.4231 15.1727 14.1978 15.7695 13.9672C16.8525 13.5559 17.9371 13.1427 19.0267 12.7476Z" fill="#004917"/>
<path d="M19.6772 10.8343C19.7073 10.9657 19.6943 11.1281 19.6985 11.2633L19.7258 12.1835C19.4587 12.3048 19.1676 12.396 18.8907 12.497L17.4967 13.0151L15.5501 13.7479C15.0465 13.9411 14.5427 14.1479 14.0307 14.3197L13.9821 14.3279C13.9513 14.2955 13.9695 13.0059 13.9705 12.8682C14.5365 12.6384 15.1231 12.4443 15.6993 12.2376C17.0196 11.7639 18.3475 11.3075 19.6633 10.8233L19.6634 10.8232L19.6772 10.8343Z" fill="#004917"/>
<path d="M4.90194 9.3225C5.15996 9.40979 5.41374 9.51692 5.6667 9.61666L7.11727 10.1979L11.6384 12.0442C12.3204 12.3249 12.9953 12.6255 13.6846 12.8902C13.6825 13.3651 13.69 13.8407 13.6834 14.3154C13.653 14.3247 13.6017 14.2983 13.5706 14.2874C13.4114 14.2263 13.2573 14.1498 13.1001 14.0837C12.5779 13.8626 12.0579 13.6369 11.5401 13.4068C11.1318 13.2263 10.7123 13.0697 10.3007 12.8963C10.0615 12.7956 9.83018 12.679 9.59165 12.577C7.9751 11.885 6.34453 11.2216 4.7482 10.4878C4.76622 10.1049 4.81867 9.69819 4.90194 9.3225Z" fill="#004917"/>
<path d="M20.2719 10.3238C20.3005 10.3189 20.2876 10.3162 20.3106 10.3311C20.3428 10.4533 20.3255 10.6091 20.3272 10.7361L20.3373 11.5622C20.3394 11.7516 20.3313 11.9476 20.3623 12.135C20.5221 12.2869 20.7955 12.3456 21.0041 12.412C20.822 12.4927 20.6284 12.5572 20.4432 12.6324C20.304 12.6902 20.1633 12.7449 20.0214 12.7966C20.0095 12.6143 20.0153 12.4282 20.013 12.2454C20.0092 11.8947 20.0025 11.5439 19.9934 11.1932C19.988 11.0024 20.0058 10.7667 19.9448 10.5859L19.9036 10.4666C20.0224 10.4111 20.1482 10.3681 20.2719 10.3238Z" fill="#004917"/>
<path d="M8.44685 4.45629C9.51226 4.39672 10.5631 5.00465 11.3641 5.61269C13.053 6.89481 14.2277 8.98115 14.7863 10.9347C14.9009 11.3355 15.0138 11.7471 15.061 12.1608C14.858 12.241 14.6489 12.3073 14.4431 12.3807C14.2606 12.4457 14.0807 12.5179 13.8955 12.5758C13.6569 11.3214 13.2719 10.056 12.6791 8.90835C12.5488 8.6561 12.3983 8.41346 12.2507 8.17001C12.1242 7.97312 11.9913 7.78007 11.8523 7.59078C11.2416 6.75876 10.163 5.76882 9.07368 5.58826C8.50956 5.49476 7.95707 5.60485 7.4888 5.9197C6.61124 6.50988 6.19672 7.63429 5.98512 8.59112C5.92745 8.85205 5.89134 9.11592 5.84591 9.3788C5.54432 9.2873 5.24655 9.15716 4.95746 9.03416C5.17744 8.02146 5.46269 7.02658 5.99703 6.11751C6.1405 5.87335 6.29238 5.63816 6.48728 5.42688C7.0361 4.83186 7.60025 4.51185 8.447 4.45629H8.44685Z" fill="#004917"/>
<path d="M8.50395 5.83073C8.98972 5.75483 9.64565 6.01459 10.0486 6.25944C11.3634 7.05822 12.3455 8.64181 12.8728 10.0031C13.1936 10.8311 13.4097 11.6812 13.6071 12.5412C13.4131 12.482 13.2254 12.4004 13.038 12.3249C12.6831 12.1806 12.3291 12.034 11.9763 11.8851L7.83916 10.1845C7.45237 10.0228 7.06106 9.87085 6.67327 9.71116C6.49161 9.63638 6.30554 9.56587 6.12961 9.47984C6.1348 9.28873 6.18132 9.08723 6.21744 8.89926C6.3713 8.09943 6.62672 7.27281 7.1532 6.61494C7.49224 6.19123 7.94228 5.90244 8.50395 5.83073Z" fill="#004917"/>
<path d="M21.5272 9.41274C21.6116 9.40489 21.6904 9.40264 21.7735 9.42219C21.9848 9.4719 22.1435 9.60358 22.2555 9.77528L22.2567 11.7735C22.0296 11.9582 21.7879 12.0993 21.5263 12.2346L21.3627 12.2108C21.1096 12.1583 20.8641 12.1006 20.6282 11.9961C20.6268 11.5788 20.6156 11.1607 20.6072 10.7434C20.604 10.5785 20.5748 10.3548 20.6061 10.1983C20.622 10.1186 20.6682 10.0398 20.715 9.97252C20.9079 9.69537 21.179 9.48081 21.5272 9.41274Z" fill="#004917"/>
<path d="M19.4444 8.919L19.4569 8.92191C19.53 9.03308 19.632 10.3118 19.6424 10.5362C19.479 10.6166 19.292 10.6669 19.1188 10.7273L18.2941 11.0218C17.3092 11.3775 16.3223 11.7278 15.3333 12.0727L15.312 11.9475C15.2298 11.4402 15.0817 10.9407 14.9394 10.4462C15.2883 10.3079 15.6528 10.1987 16.0078 10.0747L18.1567 9.34103C18.5854 9.19919 19.0178 9.06599 19.4444 8.91893L19.4444 8.919Z" fill="#004917"/>
<path d="M26.6975 9.7735C26.7231 9.8212 26.6392 10.5815 26.6252 10.6947C26.2862 10.8187 25.952 10.9569 25.6162 11.0884L23.1656 12.0511C23.1052 11.9818 23.1377 11.2435 23.138 11.112C23.4926 10.9675 23.8566 10.8401 24.215 10.7043L26.6884 9.77009L26.6975 9.7735Z" fill="#004917"/>
<path d="M27.2523 7.99407C27.277 7.98961 27.2633 7.98968 27.2932 7.99748C27.3857 8.1676 27.4619 8.96499 27.4693 9.18703C27.2839 9.23957 27.1031 9.31778 26.922 9.38264C26.3863 9.57457 25.86 9.78244 25.3293 9.98594C24.4592 10.3195 23.5741 10.6237 22.7101 10.9707L22.5312 11.0473C22.5094 10.5793 22.523 10.1075 22.5246 9.63895C23.4472 9.30989 24.3791 9.0029 25.3038 8.6793L26.4512 8.27537C26.7176 8.18029 26.9822 8.07928 27.2524 7.994L27.2523 7.99407Z" fill="#004917"/>
<path d="M18.6443 6.44688L18.6669 6.45419C18.7439 6.53865 18.7884 6.67669 18.8333 6.77988C19.099 7.39049 19.2789 8.00243 19.4067 8.65125L16.229 9.71301C15.7641 9.86811 15.3025 10.0318 14.8443 10.2041L14.7698 9.99325C14.6033 9.54321 14.3999 9.08891 14.173 8.66325C14.0496 8.43155 13.9052 8.20835 13.7874 7.97476C14.0893 7.85812 14.4108 7.76914 14.721 7.6735C15.1521 7.537 15.5844 7.40362 16.0178 7.27341C16.8951 7.00273 17.7707 6.72723 18.6445 6.44681L18.6443 6.44688Z" fill="#004917"/>
<path d="M16.7496 1.96969C16.94 1.98937 17.1522 2.06712 17.335 2.12198C18.3193 2.41749 19.2105 2.89945 19.9386 3.59597C20.2104 3.8559 20.4441 4.13769 20.6664 4.43627C21.7304 5.86533 22.1735 7.56036 22.1622 9.29296C21.947 9.19901 21.7334 9.12822 21.4936 9.15756C20.9276 9.22695 20.6427 9.66358 20.3272 10.0547C20.1835 10.0918 20.0432 10.1399 19.9024 10.1857C19.8853 9.99845 19.8666 9.81128 19.8465 9.62433C19.7991 9.31997 19.7699 9.01415 19.7142 8.71061C19.5069 7.58265 19.1127 6.44555 18.4261 5.49312C17.2012 3.79408 15.7416 3.14923 13.6562 2.77605C14.004 2.65098 14.4964 2.55895 14.8643 2.46719C15.4938 2.30537 16.1223 2.13956 16.7496 1.96969Z" fill="#004917"/>
<path d="M25.5825 6.70653C25.6638 6.77251 25.9337 7.96528 25.97 8.16348C25.6729 8.2514 25.3782 8.3638 25.0856 8.46523C24.2805 8.74439 23.4817 9.04357 22.67 9.30532C22.5907 9.33077 22.5109 9.35474 22.4305 9.37717C22.4257 8.84004 22.3895 8.31428 22.3404 7.77929C22.8086 7.59823 23.298 7.45207 23.7766 7.29691L25.5601 6.70774L25.56 6.70781L25.5825 6.70653Z" fill="#004917"/>
<path d="M21.0286 0.574159C21.9031 0.50396 22.7774 0.891767 23.4649 1.37448C24.655 2.21021 25.5761 3.44394 26.1965 4.70508C26.42 5.16875 26.6137 5.64331 26.7773 6.1288C26.9585 6.65091 27.1199 7.181 27.2051 7.72554C26.8816 7.85318 26.544 7.9802 26.2078 8.07465C26.1738 7.94972 26.1558 7.81667 26.1306 7.68954C26.0451 7.14435 25.8325 6.48318 25.6332 5.95917C25.5166 5.65238 25.4006 5.34614 25.2617 5.04752C25.2316 4.98191 25.2005 4.91655 25.1687 4.8517C25.1367 4.78679 25.104 4.72232 25.0703 4.65829C25.0367 4.59419 25.0022 4.53052 24.9668 4.4673C24.9315 4.40408 24.8953 4.3412 24.8581 4.27886C24.821 4.21654 24.7832 4.15457 24.7444 4.09319C24.7056 4.03173 24.666 3.97075 24.6256 3.91029C24.5852 3.84983 24.5439 3.78983 24.5018 3.73038C24.4598 3.67086 24.4169 3.61189 24.3732 3.55344C24.3296 3.49501 24.2851 3.43714 24.2399 3.37977C24.1947 3.32239 24.1487 3.26554 24.1019 3.2093C24.0551 3.15305 24.0075 3.09735 23.9592 3.04223C23.9109 2.98713 23.8619 2.93263 23.8122 2.87879C23.7624 2.82487 23.712 2.77155 23.6607 2.71889C23.6095 2.66623 23.5575 2.61422 23.5049 2.56276C23.4523 2.51135 23.3989 2.46054 23.3449 2.41039C23.2909 2.36024 23.2362 2.31076 23.1808 2.262C22.4357 1.60463 21.3096 1.01796 20.2736 0.984404C20.0486 0.977115 19.8273 1.04623 19.5998 1.05377C20.0127 0.755073 20.5177 0.618351 21.0284 0.57423L21.0286 0.574159Z" fill="#004917"/>
<path d="M16.9983 4.4024C17.0044 4.4029 17.0107 4.40239 17.0166 4.40396C17.1105 4.42968 17.2401 4.57727 17.3097 4.64281C17.821 5.12377 18.2266 5.60341 18.5535 6.21535C18.33 6.26273 18.1091 6.34053 17.891 6.40677C17.5411 6.51304 17.1912 6.61768 16.8428 6.72854L14.656 7.40604C14.5031 7.45405 13.7333 7.71858 13.6442 7.71361C13.6197 7.71222 13.6141 7.69416 13.5998 7.67726C13.1378 6.972 12.5789 6.33565 11.9591 5.74929C12.6373 5.594 13.3117 5.40556 13.9836 5.22708C14.9918 4.96326 15.9968 4.68843 16.9982 4.40254L16.9983 4.4024Z" fill="#004917"/>
<path d="M24.5603 4.36988C24.6257 4.42997 24.675 4.53637 24.7186 4.61221C25.0525 5.19303 25.2948 5.81987 25.5122 6.44631C25.0032 6.60801 24.4963 6.77564 23.9917 6.94921C23.4743 7.12235 22.9558 7.28967 22.4406 7.46916L22.2919 7.51311C22.1792 6.71937 21.8583 5.94039 21.4974 5.22119C22.5038 4.92499 23.5142 4.64127 24.5284 4.37002C24.5371 4.3679 24.5511 4.36969 24.5603 4.36988Z" fill="#004917"/>
<path d="M14.284 3.18352C14.389 3.17655 14.5593 3.24232 14.6623 3.26922C15.4283 3.46894 16.1254 3.75763 16.7713 4.19841C16.6091 4.25428 16.4374 4.29066 16.2711 4.33509L15.3401 4.58558C14.261 4.87329 13.1801 5.15493 12.0975 5.43057L11.694 5.53381C11.6195 5.4709 11.5437 5.40953 11.4665 5.3497C11.3892 5.28993 11.3107 5.23173 11.2308 5.17511C11.1509 5.11855 11.0697 5.06367 10.9873 5.01038C10.9049 4.95716 10.8213 4.90551 10.7366 4.85567C10.6519 4.80584 10.5659 4.75771 10.479 4.7114C10.392 4.66508 10.3039 4.62051 10.2149 4.57777C10.1259 4.53504 10.036 4.49411 9.9451 4.45508C9.85417 4.416 9.76243 4.37886 9.66984 4.34354C10.2831 4.18002 10.9054 4.03995 11.5221 3.88793L14.284 3.18352Z" fill="#004917"/>
<path d="M22.8797 2.34635C23.1384 2.41578 24.2534 3.84436 24.4305 4.13125C23.911 4.25958 23.3986 4.41371 22.8831 4.55555C22.3866 4.69224 21.889 4.81235 21.4057 4.98837C21.3584 4.98887 21.3135 4.88819 21.291 4.85248C20.9063 4.24067 20.4336 3.6412 19.8607 3.17507C20.153 3.09979 20.4418 3.01293 20.7339 2.93708C21.4511 2.75105 22.1746 2.57065 22.8797 2.34635Z" fill="#004917"/>
<path d="M13.0569 2.97514C13.3111 3.00134 13.4763 3.02547 13.729 3.06644C13.6602 3.0869 9.5387 4.19221 9.46999 4.21112C9.16144 4.21112 9.16144 4.10207 8.31291 4.21112C9.27714 3.88395 12.7204 3.06119 13.0569 2.97514Z" fill="#004917"/>
<path d="M20.2857 1.26678C20.2932 1.26577 20.3006 1.26467 20.3081 1.26379C20.7407 1.21429 21.6623 1.5901 22.0579 1.79623C22.2534 1.89735 22.4386 2.01329 22.6134 2.14407C21.7041 2.42323 20.7759 2.63904 19.8612 2.90129L19.6146 2.96789C18.9498 2.4777 18.0579 2.11448 17.261 1.8482C17.5046 1.8005 17.9838 1.65137 18.2252 1.59374L19.4209 1.23021L20.2857 1.26678Z" fill="#004917"/>
</g>
<path d="M12 19.3844C12 16.8354 14.0664 14.769 16.6154 14.769H23.3846C25.9336 14.769 28 16.8354 28 19.3844C28 21.9334 25.9336 23.9998 23.3846 23.9998H16.6154C14.0664 23.9998 12 21.9334 12 19.3844Z" fill="#F97C39"/>
<path d="M23.3848 14.3071C26.1886 14.3072 28.4618 16.5805 28.4619 19.3843C28.4619 22.1881 26.1886 24.4613 23.3848 24.4614H16.6152C13.8114 24.4613 11.5381 22.1881 11.5381 19.3843C11.5382 16.5805 13.8114 14.3072 16.6152 14.3071H23.3848Z" stroke="#00240B" stroke-opacity="0.9" stroke-width="0.923077"/>
<path d="M15.0781 21.4976H15.1328C15.3828 21.4976 15.5964 21.4611 15.7734 21.3882C15.9531 21.3153 16.099 21.2085 16.2109 21.0679C16.3255 20.9246 16.4089 20.7502 16.4609 20.5444C16.513 20.3361 16.5391 20.0978 16.5391 19.8296V18.7319C16.5391 18.5288 16.5247 18.353 16.4961 18.2046C16.4674 18.0535 16.4271 17.9285 16.375 17.8296C16.3229 17.728 16.2643 17.6525 16.1992 17.603C16.1341 17.5535 16.0638 17.5288 15.9883 17.5288C15.8997 17.5288 15.8216 17.5601 15.7539 17.6226C15.6862 17.6825 15.6289 17.7632 15.582 17.8647C15.5378 17.9663 15.5039 18.0822 15.4805 18.2124C15.457 18.3426 15.4453 18.478 15.4453 18.6187C15.4453 18.7619 15.457 18.8986 15.4805 19.0288C15.5039 19.1564 15.5391 19.2697 15.5859 19.3687C15.6328 19.465 15.6927 19.5405 15.7656 19.5952C15.8385 19.6499 15.9258 19.6772 16.0273 19.6772C16.1107 19.6772 16.1875 19.6538 16.2578 19.6069C16.3281 19.5575 16.3893 19.4937 16.4414 19.4155C16.4961 19.3348 16.5378 19.2463 16.5664 19.1499C16.5977 19.0509 16.6146 18.9507 16.6172 18.8491L16.9727 19.0718C16.9727 19.2489 16.9401 19.4246 16.875 19.5991C16.8125 19.7736 16.7253 19.9325 16.6133 20.0757C16.5013 20.2189 16.3711 20.3335 16.2227 20.4194C16.0768 20.5028 15.9193 20.5444 15.75 20.5444C15.5234 20.5444 15.3229 20.4963 15.1484 20.3999C14.974 20.3009 14.8268 20.1655 14.707 19.9937C14.5898 19.8218 14.5013 19.62 14.4414 19.3882C14.3815 19.1564 14.3516 18.9038 14.3516 18.6304C14.3516 18.3543 14.3893 18.0952 14.4648 17.853C14.543 17.6082 14.6536 17.3934 14.7969 17.2085C14.9401 17.0236 15.1133 16.8791 15.3164 16.7749C15.5195 16.6681 15.7461 16.6147 15.9961 16.6147C16.2435 16.6147 16.4674 16.6694 16.668 16.7788C16.8685 16.8882 17.0404 17.0457 17.1836 17.2515C17.3268 17.4546 17.4362 17.6994 17.5117 17.9858C17.5898 18.2697 17.6289 18.5874 17.6289 18.939V19.3296C17.6289 19.7046 17.5964 20.0522 17.5312 20.3726C17.4661 20.6903 17.3672 20.9767 17.2344 21.2319C17.1016 21.4871 16.9362 21.7059 16.7383 21.8882C16.5404 22.0679 16.3086 22.2059 16.043 22.3022C15.7799 22.396 15.4818 22.4429 15.1484 22.4429H15.0781V21.4976ZM19.125 21.4976H19.1797C19.4297 21.4976 19.6432 21.4611 19.8203 21.3882C20 21.3153 20.1458 21.2085 20.2578 21.0679C20.3724 20.9246 20.4557 20.7502 20.5078 20.5444C20.5599 20.3361 20.5859 20.0978 20.5859 19.8296V18.7319C20.5859 18.5288 20.5716 18.353 20.543 18.2046C20.5143 18.0535 20.474 17.9285 20.4219 17.8296C20.3698 17.728 20.3112 17.6525 20.2461 17.603C20.181 17.5535 20.1107 17.5288 20.0352 17.5288C19.9466 17.5288 19.8685 17.5601 19.8008 17.6226C19.7331 17.6825 19.6758 17.7632 19.6289 17.8647C19.5846 17.9663 19.5508 18.0822 19.5273 18.2124C19.5039 18.3426 19.4922 18.478 19.4922 18.6187C19.4922 18.7619 19.5039 18.8986 19.5273 19.0288C19.5508 19.1564 19.5859 19.2697 19.6328 19.3687C19.6797 19.465 19.7396 19.5405 19.8125 19.5952C19.8854 19.6499 19.9727 19.6772 20.0742 19.6772C20.1576 19.6772 20.2344 19.6538 20.3047 19.6069C20.375 19.5575 20.4362 19.4937 20.4883 19.4155C20.543 19.3348 20.5846 19.2463 20.6133 19.1499C20.6445 19.0509 20.6615 18.9507 20.6641 18.8491L21.0195 19.0718C21.0195 19.2489 20.987 19.4246 20.9219 19.5991C20.8594 19.7736 20.7721 19.9325 20.6602 20.0757C20.5482 20.2189 20.418 20.3335 20.2695 20.4194C20.1237 20.5028 19.9661 20.5444 19.7969 20.5444C19.5703 20.5444 19.3698 20.4963 19.1953 20.3999C19.0208 20.3009 18.8737 20.1655 18.7539 19.9937C18.6367 19.8218 18.5482 19.62 18.4883 19.3882C18.4284 19.1564 18.3984 18.9038 18.3984 18.6304C18.3984 18.3543 18.4362 18.0952 18.5117 17.853C18.5898 17.6082 18.7005 17.3934 18.8438 17.2085C18.987 17.0236 19.1602 16.8791 19.3633 16.7749C19.5664 16.6681 19.793 16.6147 20.043 16.6147C20.2904 16.6147 20.5143 16.6694 20.7148 16.7788C20.9154 16.8882 21.0872 17.0457 21.2305 17.2515C21.3737 17.4546 21.4831 17.6994 21.5586 17.9858C21.6367 18.2697 21.6758 18.5874 21.6758 18.939V19.3296C21.6758 19.7046 21.6432 20.0522 21.5781 20.3726C21.513 20.6903 21.4141 20.9767 21.2812 21.2319C21.1484 21.4871 20.9831 21.7059 20.7852 21.8882C20.5872 22.0679 20.3555 22.2059 20.0898 22.3022C19.8268 22.396 19.5286 22.4429 19.1953 22.4429H19.125V21.4976ZM25.625 19.1968V20.2124H22.3516V19.1968H25.625ZM24.5117 17.6733V21.814H23.4766V17.6733H24.5117Z" fill="black"/>
<defs>
<filter id="filter0_d_3032_19396" x="0.307692" y="0" width="31.3846" height="31.3846" filterUnits="userSpaceOnUse" color-interpolation-filters="sRGB">
<feFlood flood-opacity="0" result="BackgroundImageFix"/>
<feColorMatrix in="SourceAlpha" type="matrix" values="0 0 0 0 0 0 0 0 0 0 0 0 0 0 0 0 0 0 127 0" result="hardAlpha"/>
<feOffset dy="3.69231"/>
<feGaussianBlur stdDeviation="1.84615"/>
<feComposite in2="hardAlpha" operator="out"/>
<feColorMatrix type="matrix" values="0 0 0 0 0 0 0 0 0 0 0 0 0 0 0 0 0 0 0.38 0"/>
<feBlend mode="normal" in2="BackgroundImageFix" result="effect1_dropShadow_3032_19396"/>
<feBlend mode="normal" in="SourceGraphic" in2="effect1_dropShadow_3032_19396" result="shape"/>
</filter>
</defs>
</svg>
