<svg width="32" height="28" viewBox="0 0 32 28" fill="none" xmlns="http://www.w3.org/2000/svg">
<g filter="url(#filter0_d_3032_19344)">
<g filter="url(#filter1_d_3032_19344)">
<path d="M4.78533 12.3311H4L9.12996 23.1142H9.91529L4.78533 12.3311Z" fill="black"/>
<path d="M4.78533 12.3311H4L9.12996 23.1142H9.91529L4.78533 12.3311Z" fill="#07CB38" fill-opacity="0.4"/>
<path fill-rule="evenodd" clip-rule="evenodd" d="M15.5725 8.29346H14.2823L9.15234 23.1054H10.4426L15.5725 8.29346Z" fill="black"/>
<path fill-rule="evenodd" clip-rule="evenodd" d="M15.5725 8.29346H14.2823L9.15234 23.1054H10.4426L15.5725 8.29346Z" fill="#07CB38" fill-opacity="0.6"/>
<path fill-rule="evenodd" clip-rule="evenodd" d="M14.2393 8.27051H16.4004L21.5303 23.1252H19.3692L14.2393 8.27051Z" fill="black"/>
<path fill-rule="evenodd" clip-rule="evenodd" d="M14.2393 8.27051H16.4004L21.5303 23.1252H19.3692L14.2393 8.27051Z" fill="#07CB38" fill-opacity="0.9"/>
<path fill-rule="evenodd" clip-rule="evenodd" d="M27.9996 4.87451H24.462L19.332 23.122H22.8696L27.9996 4.87451Z" fill="#07CB38"/>
</g>
</g>
<defs>
<filter id="filter0_d_3032_19344" x="4" y="4.87451" width="24" height="19.0801" filterUnits="userSpaceOnUse" color-interpolation-filters="sRGB">
<feFlood flood-opacity="0" result="BackgroundImageFix"/>
<feColorMatrix in="SourceAlpha" type="matrix" values="0 0 0 0 0 0 0 0 0 0 0 0 0 0 0 0 0 0 127 0" result="hardAlpha"/>
<feOffset dy="0.82958"/>
<feComposite in2="hardAlpha" operator="out"/>
<feColorMatrix type="matrix" values="0 0 0 0 0 0 0 0 0 0 0 0 0 0 0 0 0 0 0.25 0"/>
<feBlend mode="normal" in2="BackgroundImageFix" result="effect1_dropShadow_3032_19344"/>
<feBlend mode="normal" in="SourceGraphic" in2="effect1_dropShadow_3032_19344" result="shape"/>
</filter>
<filter id="filter1_d_3032_19344" x="0" y="0.874512" width="32" height="26.2505" filterUnits="userSpaceOnUse" color-interpolation-filters="sRGB">
<feFlood flood-opacity="0" result="BackgroundImageFix"/>
<feColorMatrix in="SourceAlpha" type="matrix" values="0 0 0 0 0 0 0 0 0 0 0 0 0 0 0 0 0 0 127 0" result="hardAlpha"/>
<feOffset/>
<feGaussianBlur stdDeviation="2"/>
<feComposite in2="hardAlpha" operator="out"/>
<feColorMatrix type="matrix" values="0 0 0 0 0.336471 0 0 0 0 0.976471 0 0 0 0 0.223529 0 0 0 0.9 0"/>
<feBlend mode="normal" in2="BackgroundImageFix" result="effect1_dropShadow_3032_19344"/>
<feBlend mode="normal" in="SourceGraphic" in2="effect1_dropShadow_3032_19344" result="shape"/>
</filter>
</defs>
</svg>
