<svg width="32" height="32" viewBox="0 0 32 32" fill="none" xmlns="http://www.w3.org/2000/svg">
<g filter="url(#filter0_d_3032_19356)">
<path d="M28 16C28 22.6274 22.6274 28 16 28C9.37258 28 4 22.6274 4 16C4 9.37258 9.37258 4 16 4C22.6274 4 28 9.37258 28 16ZM7.00427 16C7.00427 20.9682 11.0318 24.9957 16 24.9957C20.9682 24.9957 24.9957 20.9682 24.9957 16C24.9957 11.0318 20.9682 7.00427 16 7.00427C11.0318 7.00427 7.00427 11.0318 7.00427 16Z" fill="#07CB38" fill-opacity="0.4"/>
<mask id="path-3-inside-1_3032_19356" fill="white">
<path d="M16 4C13.3562 4 10.7865 4.87307 8.68988 6.48359C6.59328 8.09411 5.08722 10.3519 4.40564 12.9063C3.72406 15.4607 3.90511 18.1687 4.92067 20.6096C5.93623 23.0505 7.72945 25.0878 10.0218 26.4048C12.3141 27.7219 14.9772 28.2451 17.5975 27.8932C20.2177 27.5413 22.6484 26.3339 24.5119 24.4586C26.3754 22.5833 27.5675 20.1451 27.903 17.5227C28.2385 14.9003 27.6985 12.2405 26.3671 9.95652L16 16L16 4Z"/>
</mask>
<path d="M16 4C13.3562 4 10.7865 4.87307 8.68988 6.48359C6.59328 8.09411 5.08722 10.3519 4.40564 12.9063C3.72406 15.4607 3.90511 18.1687 4.92067 20.6096C5.93623 23.0505 7.72945 25.0878 10.0218 26.4048C12.3141 27.7219 14.9772 28.2451 17.5975 27.8932C20.2177 27.5413 22.6484 26.3339 24.5119 24.4586C26.3754 22.5833 27.5675 20.1451 27.903 17.5227C28.2385 14.9003 27.6985 12.2405 26.3671 9.95652L16 16L16 4Z" stroke="#F97C39" stroke-width="10.5" stroke-linejoin="round" mask="url(#path-3-inside-1_3032_19356)"/>
<circle cx="16" cy="16" r="9" fill="#1E1E1E"/>
<g filter="url(#filter1_d_3032_19356)">
<path d="M19.8232 20.4521V22.5H12.2822V20.751L15.7451 16.3477C16.0791 15.8906 16.3398 15.4863 16.5273 15.1348C16.7148 14.7832 16.8496 14.4697 16.9316 14.1943C17.0137 13.9131 17.0547 13.6465 17.0547 13.3945C17.0547 13.0195 17.0107 12.6973 16.9229 12.4277C16.835 12.1523 16.7031 11.9414 16.5273 11.7949C16.3574 11.6426 16.1465 11.5664 15.8945 11.5664C15.5898 11.5664 15.3379 11.6602 15.1387 11.8477C14.9395 12.0352 14.79 12.293 14.6904 12.6211C14.5967 12.9434 14.5498 13.3096 14.5498 13.7197H12.0801C12.0801 12.958 12.2354 12.2578 12.5459 11.6191C12.8623 10.9746 13.3047 10.4648 13.873 10.0898C14.4473 9.70898 15.1357 9.51855 15.9385 9.51855C16.7178 9.51855 17.374 9.66504 17.9072 9.95801C18.4404 10.251 18.8418 10.6699 19.1113 11.2148C19.3867 11.7539 19.5244 12.4014 19.5244 13.1572C19.5244 13.5791 19.4688 13.9922 19.3574 14.3965C19.2461 14.7949 19.0879 15.1934 18.8828 15.5918C18.6777 15.9844 18.4229 16.3857 18.1182 16.7959C17.8193 17.2061 17.4854 17.6309 17.1162 18.0703L15.4463 20.4521H19.8232Z" fill="white"/>
</g>
</g>
<defs>
<filter id="filter0_d_3032_19356" x="0" y="0" width="32" height="32" filterUnits="userSpaceOnUse" color-interpolation-filters="sRGB">
<feFlood flood-opacity="0" result="BackgroundImageFix"/>
<feColorMatrix in="SourceAlpha" type="matrix" values="0 0 0 0 0 0 0 0 0 0 0 0 0 0 0 0 0 0 127 0" result="hardAlpha"/>
<feOffset/>
<feGaussianBlur stdDeviation="2"/>
<feComposite in2="hardAlpha" operator="out"/>
<feColorMatrix type="matrix" values="0 0 0 0 0.976471 0 0 0 0 0.486275 0 0 0 0 0.223529 0 0 0 0.9 0"/>
<feBlend mode="normal" in2="BackgroundImageFix" result="effect1_dropShadow_3032_19356"/>
<feBlend mode="normal" in="SourceGraphic" in2="effect1_dropShadow_3032_19356" result="shape"/>
</filter>
<filter id="filter1_d_3032_19356" x="12.0801" y="9.51855" width="7.74316" height="14.9814" filterUnits="userSpaceOnUse" color-interpolation-filters="sRGB">
<feFlood flood-opacity="0" result="BackgroundImageFix"/>
<feColorMatrix in="SourceAlpha" type="matrix" values="0 0 0 0 0 0 0 0 0 0 0 0 0 0 0 0 0 0 127 0" result="hardAlpha"/>
<feOffset dy="2"/>
<feComposite in2="hardAlpha" operator="out"/>
<feColorMatrix type="matrix" values="0 0 0 0 0 0 0 0 0 0 0 0 0 0 0 0 0 0 0.25 0"/>
<feBlend mode="normal" in2="BackgroundImageFix" result="effect1_dropShadow_3032_19356"/>
<feBlend mode="normal" in="SourceGraphic" in2="effect1_dropShadow_3032_19356" result="shape"/>
</filter>
</defs>
</svg>
