<svg width="32" height="32" viewBox="0 0 32 32" fill="none" xmlns="http://www.w3.org/2000/svg">
<g filter="url(#filter0_d_3032_19385)">
<circle cx="16" cy="16" r="11" fill="#082620"/>
<path d="M28 16C28 17.5758 27.6898 19.1362 27.0868 20.592C26.4837 22.0479 25.5995 23.3709 24.4852 24.4852C23.3709 25.5995 22.0479 26.4837 20.592 27.0868C19.1362 27.6898 17.5758 28 16 28V25.3333C17.2257 25.3333 18.4397 25.0923 19.572 24.6233C20.7044 24.1542 21.7332 23.4665 22.5998 22.5998C23.4665 21.7332 24.1542 20.7044 24.6233 19.572C25.0923 18.4397 25.3333 17.2257 25.3333 16H28Z" fill="#07CB38"/>
<path d="M16 28C14.4242 28 12.8638 27.6898 11.408 27.0868C9.95208 26.4838 8.62906 25.5995 7.51476 24.4852C6.40046 23.3709 5.51625 22.0479 4.91319 20.592C4.31021 19.1362 4 17.5758 4 16L6.66667 16C6.66667 17.2257 6.90769 18.4397 7.37674 19.572C7.84578 20.7044 8.53353 21.7332 9.40017 22.5998C10.2668 23.4665 11.2956 24.1542 12.428 24.6233C13.5603 25.0923 14.7743 25.3333 16 25.3333L16 28Z" fill="#F97C39"/>
<path d="M4 16C4 14.4242 4.31021 12.8638 4.91319 11.408C5.51625 9.95208 6.40045 8.62906 7.51476 7.51476C8.62906 6.40045 9.95208 5.51625 11.408 4.91319C12.8638 4.31021 14.4242 4 16 4V6.66667C14.7743 6.66667 13.5603 6.90769 12.428 7.37674C11.2956 7.84578 10.2668 8.53353 9.40017 9.40017C8.53353 10.2668 7.84578 11.2956 7.37674 12.428C6.90769 13.5603 6.66667 14.7743 6.66667 16H4Z" fill="#07CB38"/>
<path d="M16 4C17.5758 4 19.1362 4.31021 20.592 4.91319C22.0479 5.51625 23.3709 6.40045 24.4852 7.51476C25.5995 8.62906 26.4837 9.95208 27.0868 11.408C27.6898 12.8638 28 14.4242 28 16L25.3333 16C25.3333 14.7743 25.0923 13.5603 24.6233 12.428C24.1542 11.2956 23.4665 10.2668 22.5998 9.40017C21.7332 8.53353 20.7044 7.84578 19.572 7.37674C18.4397 6.90769 17.2257 6.66667 16 6.66667L16 4Z" fill="#F97C39"/>
<g filter="url(#filter1_d_3032_19385)">
<path d="M18.4844 11.4688V12.2598L15.6777 20H14.2363L17.0488 12.6172H13.4453V11.4688H18.4844Z" fill="white"/>
</g>
</g>
<defs>
<filter id="filter0_d_3032_19385" x="0" y="0" width="32" height="32" filterUnits="userSpaceOnUse" color-interpolation-filters="sRGB">
<feFlood flood-opacity="0" result="BackgroundImageFix"/>
<feColorMatrix in="SourceAlpha" type="matrix" values="0 0 0 0 0 0 0 0 0 0 0 0 0 0 0 0 0 0 127 0" result="hardAlpha"/>
<feOffset/>
<feGaussianBlur stdDeviation="2"/>
<feComposite in2="hardAlpha" operator="out"/>
<feColorMatrix type="matrix" values="0 0 0 0 0.336471 0 0 0 0 0.976471 0 0 0 0 0.223529 0 0 0 0.9 0"/>
<feBlend mode="normal" in2="BackgroundImageFix" result="effect1_dropShadow_3032_19385"/>
<feBlend mode="normal" in="SourceGraphic" in2="effect1_dropShadow_3032_19385" result="shape"/>
</filter>
<filter id="filter1_d_3032_19385" x="13.4453" y="11.4688" width="5.03906" height="10.5312" filterUnits="userSpaceOnUse" color-interpolation-filters="sRGB">
<feFlood flood-opacity="0" result="BackgroundImageFix"/>
<feColorMatrix in="SourceAlpha" type="matrix" values="0 0 0 0 0 0 0 0 0 0 0 0 0 0 0 0 0 0 127 0" result="hardAlpha"/>
<feOffset dy="2"/>
<feComposite in2="hardAlpha" operator="out"/>
<feColorMatrix type="matrix" values="0 0 0 0 0 0 0 0 0 0 0 0 0 0 0 0 0 0 0.25 0"/>
<feBlend mode="normal" in2="BackgroundImageFix" result="effect1_dropShadow_3032_19385"/>
<feBlend mode="normal" in="SourceGraphic" in2="effect1_dropShadow_3032_19385" result="shape"/>
</filter>
</defs>
</svg>
