<svg width="26" height="26" viewBox="0 0 26 26" fill="none" xmlns="http://www.w3.org/2000/svg">
<rect x="0.40625" y="0.40625" width="25.1875" height="25.1875" rx="12.5938" fill="black" fill-opacity="0.2"/>
<rect x="0.40625" y="0.40625" width="25.1875" height="25.1875" rx="12.5938" stroke="#07CB38" stroke-width="0.8125"/>
<g clip-path="url(#clip0_3070_2880)">
<path d="M9.95312 15.4375C10.2883 15.4375 10.5625 15.7117 10.5625 16.0469C10.5625 16.7172 10.0141 17.2656 9.34375 17.2656C9.24016 17.2656 9.14266 17.2534 9.03906 17.2352C9.22797 16.9 9.34375 16.4978 9.34375 16.0469C9.34375 15.7117 9.61797 15.4375 9.95312 15.4375ZM17.0645 7.51562C16.9061 7.51562 16.7537 7.57656 16.6319 7.69234L11.1719 13.1523L12.8477 14.8281L18.3077 9.36812C18.5453 9.13047 18.5453 8.74656 18.3077 8.50891L17.4911 7.69234C17.3692 7.57047 17.2169 7.51562 17.0645 7.51562ZM9.95312 14.2188C8.94156 14.2188 8.125 15.0353 8.125 16.0469C8.125 16.8452 7.41812 17.2656 6.90625 17.2656C7.46688 18.0091 8.42359 18.4844 9.34375 18.4844C10.6905 18.4844 11.7812 17.3936 11.7812 16.0469C11.7812 15.0353 10.9647 14.2188 9.95312 14.2188Z" fill="white"/>
</g>
<defs>
<clipPath id="clip0_3070_2880">
<rect width="14.625" height="14.625" fill="white" transform="translate(5.6875 5.6875)"/>
</clipPath>
</defs>
</svg>
