<svg width="24" height="24" viewBox="0 0 24 24" fill="none" xmlns="http://www.w3.org/2000/svg">
<rect width="24" height="24" rx="12" fill="#07CB38"/>
<g clip-path="url(#clip0_3032_19369)">
<path d="M16.7657 9.50075V8.29369C16.7657 7.71133 16.2893 7.23486 15.7069 7.23486H8.29515C7.7075 7.23486 7.23633 7.71133 7.23633 8.29369V15.7055C7.23633 16.2878 7.7075 16.7643 8.29515 16.7643H15.7069C16.2893 16.7643 16.7657 16.2878 16.7657 15.7055V14.4984C17.0781 14.3131 17.2952 13.9796 17.2952 13.5878V10.4113C17.2952 10.0196 17.0781 9.68604 16.7657 9.50075ZM16.2363 10.4113V13.5878H12.5304V10.4113H16.2363ZM8.29515 15.7055V8.29369H15.7069V9.35251H12.5304C11.9481 9.35251 11.4716 9.82898 11.4716 10.4113V13.5878C11.4716 14.1702 11.9481 14.6466 12.5304 14.6466H15.7069V15.7055H8.29515Z" fill="#070202"/>
<path d="M14.1183 12.7938C14.5569 12.7938 14.9125 12.4383 14.9125 11.9997C14.9125 11.5611 14.5569 11.2056 14.1183 11.2056C13.6798 11.2056 13.3242 11.5611 13.3242 11.9997C13.3242 12.4383 13.6798 12.7938 14.1183 12.7938Z" fill="#1E1E1E"/>
</g>
<defs>
<clipPath id="clip0_3032_19369">
<rect width="12.7059" height="12.7059" fill="white" transform="translate(5.64746 5.64697)"/>
</clipPath>
</defs>
</svg>
