<svg width="82" height="89" viewBox="0 0 82 89" fill="none" xmlns="http://www.w3.org/2000/svg">
<path fill-rule="evenodd" clip-rule="evenodd" d="M82 38.672C82 41.142 82 42.7887 80.8493 46.4936L72.164 76.197C71.6361 77.3371 70.7353 78.0336 69.7535 78.06L12.9602 77.78C12.941 77.78 12.9218 77.78 12.9026 77.78C11.7055 77.78 10.6168 76.7607 10.178 75.2242L2.18258 47.2387C1.75708 46.082 1.00022 44.7223 0.649586 43.2351C-0.135074 39.907 -0.13475 36.9249 0.258797 34.8372L3.80333 19.1287C4.11734 17.7375 5.03741 16.807 6.0946 16.807H6.11243L28.7385 17.024C29.8368 17.0372 30.8899 16.7107 31.9115 16.0614C35.3024 13.9057 39.0567 12.7562 42.7713 12.7373H42.8646C47.7803 12.7373 51.7389 14.674 54.2016 16.3067C54.9996 16.8372 55.8676 17.1146 56.7794 17.1335L76.1901 17.5431C77.1006 17.562 77.9383 18.3076 78.325 19.4458L80.4863 26.8282C80.9182 28.0966 81.2277 29.5935 81.4461 30.4844L82 38.672Z" fill="#130649"/>
<path fill-rule="evenodd" clip-rule="evenodd" d="M67.1924 33.376C67.9191 33.376 68.5102 34.103 68.5102 34.9977C68.5102 35.8924 67.9191 36.6194 67.1924 36.6194C66.4656 36.6194 65.8745 35.8924 65.8745 34.9977C65.8745 34.103 66.4656 33.376 67.1924 33.376ZM67.1924 34.5595C66.9483 34.5595 66.7327 34.7656 66.7326 34.9977C66.7326 35.2299 66.9483 35.4375 67.1924 35.4375C67.4378 35.4375 67.6514 35.2318 67.6514 34.9977C67.6513 34.7637 67.4364 34.5595 67.1924 34.5595Z" fill="#00EAFF"/>
<path fill-rule="evenodd" clip-rule="evenodd" d="M72.7624 33.376C73.489 33.3762 74.0795 34.1031 74.0795 34.9977C74.0795 35.8923 73.489 36.6192 72.7624 36.6194C72.0357 36.6194 71.4445 35.8924 71.4445 34.9977C71.4446 34.103 72.0357 33.376 72.7624 33.376ZM72.7624 34.5595C72.5171 34.5595 72.3029 34.7654 72.3027 34.9993C72.3027 35.2334 72.5183 35.4375 72.7624 35.4375C73.0064 35.4373 73.2214 35.2314 73.2214 34.9993C73.2212 34.7674 73.0062 34.5597 72.7624 34.5595Z" fill="#00EAFF"/>
<path fill-rule="evenodd" clip-rule="evenodd" d="M11.5133 33.376C12.24 33.376 12.8312 34.103 12.8312 34.9977C12.8312 35.8924 12.2401 36.6194 11.5133 36.6194C10.7867 36.6193 10.1955 35.8924 10.1955 34.9977C10.1955 34.1031 10.7867 33.3761 11.5133 33.376ZM11.5133 34.5595C11.2681 34.5596 11.0545 34.7655 11.0543 34.9993C11.0543 35.2333 11.2693 35.4374 11.5133 35.4375C11.7574 35.4375 11.9731 35.2315 11.9731 34.9993C11.9728 34.7673 11.7573 34.5595 11.5133 34.5595Z" fill="#00EAFF"/>
<path fill-rule="evenodd" clip-rule="evenodd" d="M17.0834 33.376C17.8101 33.376 18.4012 34.103 18.4012 34.9977C18.4012 35.8924 17.8101 36.6194 17.0834 36.6194C16.3566 36.6194 15.7655 35.8924 15.7655 34.9977C15.7655 34.103 16.3566 33.376 17.0834 33.376ZM17.0834 34.5595C16.8394 34.5595 16.6238 34.7654 16.6236 34.9993C16.6236 35.2334 16.8393 35.4375 17.0834 35.4375C17.3274 35.4375 17.5424 35.2315 17.5424 34.9993C17.5422 34.7673 17.3273 34.5596 17.0834 34.5595Z" fill="#00EAFF"/>
<path fill-rule="evenodd" clip-rule="evenodd" d="M42.8648 12.7373C47.7803 12.7374 51.7389 14.6737 54.2015 16.3064C54.9995 16.8368 55.8677 17.1149 56.7796 17.1337L76.1897 17.543C77.1002 17.5619 77.9384 18.3079 78.3251 19.4461L80.4863 26.828C80.9182 28.0964 81.228 29.5937 81.4464 30.4847L82 38.6721C82 41.1421 81.9999 42.7888 80.8492 46.4937L72.1637 76.1971C71.6358 77.3372 70.7352 78.0336 69.7534 78.06L12.9598 77.7802H12.9029C11.7058 77.7802 10.6165 76.7607 10.1777 75.2242L2.1826 47.2391C1.7571 46.0823 1.00029 44.7222 0.649654 43.235C-0.134913 39.9072 -0.134809 36.9253 0.258657 34.8377L3.8035 19.1285C4.11755 17.7375 5.03765 16.8073 6.09479 16.8073H6.11253L28.7386 17.0244C29.8369 17.0376 30.8902 16.7105 31.9117 16.0612C35.3025 13.9057 39.0566 12.7563 42.7709 12.7373H42.8648ZM10.5303 71.1936L11.4542 74.5351C11.6914 75.3636 12.2757 75.9283 12.931 75.8907L69.7261 76.1705C70.2471 76.1573 70.7257 75.7872 71.004 75.1832V75.1816L72.0277 71.1936H10.5303ZM10.3026 70.3703H72.2384L73.9287 63.7836H8.48216L10.3026 70.3703ZM8.25451 62.9603H74.1401L75.8305 56.3737H6.43331L8.25451 62.9603ZM6.20566 55.5504H76.0412L77.8372 48.5521L4.04298 47.7287L6.20566 55.5504ZM36.1018 29.6766C36.1073 30.4373 35.8946 31.1528 35.5038 31.6907C35.1172 32.2229 34.6045 32.5156 34.0589 32.5157H34.0426L30.514 32.4795C29.3952 32.468 28.4858 31.2053 28.4858 29.667V29.3108L27.7815 30.315C27.6526 30.4999 27.4741 30.6037 27.2877 30.6037H20.7413L20.4907 36.925C20.4441 38.1085 19.7324 39.0356 18.8713 39.0356H9.35507C8.89039 39.0355 8.44769 38.7598 8.13921 38.2806C7.83206 37.8011 7.68767 37.1607 7.74526 36.5246L8.22273 31.3072H4.08585C3.77047 31.3072 3.49457 31.0109 3.41916 30.59L3.07916 28.7062L1.56839 35.3997C1.18287 37.1167 1.41292 40.1709 1.75686 41.9654C2.01941 43.3382 2.89255 45.2588 3.41546 46.3932C22.208 46.3932 66.7338 46.2245 78.6621 46.4937L79.4278 45.6704C80.1082 42.7888 80.1657 40.7392 80.1078 37.8488L79.6525 30.5997L75.2784 30.4847L75.7884 36.5817C75.8432 37.2402 75.6951 37.8931 75.3826 38.3762C75.0919 38.8255 74.6818 39.0821 74.2554 39.0822H65.5293C64.708 39.0822 64.0307 38.154 63.9868 36.9668L63.7547 30.5997H58.3014C58.1205 30.5996 57.9478 30.5015 57.8203 30.3279L56.7907 28.9329V29.6501C56.7907 31.2016 55.8732 32.4624 54.7462 32.4626H51.0314C50.4774 32.4626 49.9589 32.1628 49.5709 31.6192C49.1842 31.0737 48.9775 30.3544 48.9884 29.5938L49.0402 26.0714L36.0774 25.7353L36.1018 29.6766ZM65.3615 36.8719C65.3684 37.0624 65.4548 37.1908 65.5315 37.1911H74.2584C74.2939 37.191 74.3283 37.1667 74.3597 37.1179C74.4118 37.0387 74.4365 36.9171 74.4269 36.7963L74.4254 36.8003L73.9842 31.5339C73.0929 32.2984 71.8925 33.0216 70.4061 33.216C70.1443 33.2499 69.8892 33.265 69.6411 33.265C67.7256 33.265 66.183 32.3189 65.1642 31.4431L65.3615 36.8719ZM9.11116 36.761C9.09887 36.893 9.14436 36.9853 9.17177 37.0287C9.1992 37.0721 9.25927 37.1436 9.35655 37.1437H18.8728C19.0044 37.1436 19.1128 37.0024 19.1197 36.8213L19.3281 31.5758C18.2229 32.2968 16.7362 32.9557 14.9495 33.0142C14.8632 33.0161 14.778 33.0174 14.693 33.0174C12.5459 33.0173 10.8141 32.1415 9.61303 31.2638L9.11116 36.761ZM65.2522 30.1092C66.2436 31.0681 68.0303 32.3417 70.3255 32.0397C71.8598 31.8396 73.0514 31.0113 73.8741 30.2185L73.8711 30.1767L65.2522 30.1092ZM10.0587 30.2483C11.2064 31.0807 12.8695 31.9001 14.9303 31.8322C16.7869 31.7718 18.287 31.0071 19.3333 30.2483H10.0587ZM29.8643 27.3514V29.667C29.8643 30.171 30.1634 30.5846 30.5295 30.5884L34.0574 30.6246C34.2369 30.6189 34.4081 30.5317 34.5356 30.3544C34.6631 30.1789 34.7336 29.9443 34.7322 29.6951H34.7307L34.7241 28.5952C34.6268 28.6688 34.5195 28.7214 34.4003 28.7214H31.0321C30.7334 28.7212 30.4692 28.4551 30.3787 28.0646C30.2924 27.6928 30.2182 27.3192 30.1496 26.9437L29.8643 27.3514ZM50.3647 29.6332C50.3606 29.8822 50.4294 30.1181 50.5554 30.2973C50.6815 30.4767 50.852 30.5747 51.0343 30.5747H54.7485C55.1173 30.5747 55.418 30.1618 55.4181 29.6541V27.993C55.414 28.0156 55.4095 28.0363 55.4041 28.0589C55.3149 28.4553 55.0487 28.7255 54.7485 28.7255H51.1933C50.8313 28.7255 50.532 28.3399 50.5074 27.8434C50.4924 27.5404 50.4553 27.2448 50.4039 26.9566L50.3647 29.6332ZM6.09331 18.6984C5.6409 18.6984 5.24842 19.0945 5.11397 19.689L5.11545 19.6914L3.86781 25.2199L4.62467 29.4161H8.39643L8.5886 27.3136C8.69006 26.2 9.38254 25.3599 10.1969 25.3598H19.2387C19.6815 25.3598 20.111 25.6149 20.4168 26.0585C20.721 26.502 20.8827 27.1038 20.8581 27.7132L20.8182 28.7118H26.9987L29.8481 24.6514C29.7699 23.687 29.7461 22.7169 29.7845 21.7449C29.8243 20.7483 29.9312 19.7536 30.0971 18.774C29.6447 18.8702 29.1882 18.9174 28.7275 18.9155L6.10144 18.6984H6.09331ZM10.1969 27.2509C10.0723 27.251 9.96666 27.3794 9.95155 27.5492L9.81333 29.0672H19.4279L19.4855 27.6119C19.491 27.4854 19.4457 27.3983 19.4183 27.3586C19.3908 27.319 19.3304 27.2509 19.2387 27.2509H10.1969ZM65.196 27.2999C65.0556 27.2999 65.0218 27.5622 65.026 27.6641H65.0275L65.0726 28.9273L73.7713 28.9948L73.6531 27.5886C73.6379 27.4114 73.5545 27.2999 73.486 27.2999H65.196ZM55.9473 18.9492C56.0159 19.6268 56.0708 20.3064 56.09 20.9859C56.1297 22.3544 56.0666 23.7233 55.9089 25.0824L56.5904 26.007H56.5918L58.5853 28.7118H63.6874L63.6534 27.759C63.6301 27.1287 63.7931 26.5096 64.1028 26.0641C64.3935 25.6432 64.7819 25.4104 65.196 25.4104H73.486C74.2662 25.4104 74.9243 26.2545 75.019 27.3739L75.1202 28.5896L79.4278 28.7327C79.6347 28.4041 79.5677 27.6585 79.4278 27.2509L77.0811 20.2502C76.9152 19.7652 76.5577 19.4461 76.1698 19.4365L56.7589 19.0248C56.4861 19.0192 56.2146 18.9926 55.9473 18.9492ZM50.4031 26.9494C50.4036 26.9517 50.4035 26.9542 50.4039 26.9566L50.4046 26.9453L50.4031 26.9494ZM42.7783 14.6284C39.2599 14.6454 35.7016 15.7347 32.489 17.777H32.4875C32.1872 17.9676 31.8825 18.1355 31.5754 18.2771C31.5768 18.3677 31.5724 18.4604 31.5532 18.5529C31.3352 19.6326 31.2023 20.7408 31.157 21.847C31.0899 23.5192 31.2202 25.1934 31.5451 26.828H33.7883C34.2162 23.3908 36.4104 20.8032 38.9992 20.8693L46.7585 21.0237C49.2308 21.0746 51.3315 23.5592 51.7964 26.8304H54.2355C54.6126 24.9314 54.7751 22.9925 54.7189 21.0614C54.6942 20.2065 54.6186 19.3477 54.509 18.5022C54.2018 18.3625 53.8999 18.2054 53.6065 18.0109C51.2727 16.465 47.5207 14.6284 42.8655 14.6284H42.7783ZM38.9208 22.762C38.0502 22.762 37.2388 23.1703 36.5889 23.8611L49.157 24.1859V24.1835C48.4989 23.4116 47.6542 22.9342 46.7371 22.9171L38.977 22.762H38.9208Z" fill="#00EAFF"/>
</svg>
