<svg width="82" height="89" viewBox="0 0 82 89" fill="none" xmlns="http://www.w3.org/2000/svg">
<path d="M58.168 0.574246C60.0293 0.470799 61.9272 0.887365 63.6399 1.60918C68.2171 3.53834 72.1295 7.71395 74.7685 11.8947C76.1603 14.0994 77.3103 16.4843 78.2932 18.9036C78.6132 19.702 78.9137 20.5081 79.1945 21.3215C79.4755 22.135 79.7361 22.9552 79.977 23.7821C80.2179 24.6089 80.4384 25.4411 80.6388 26.2791C80.8391 27.1171 81.0191 27.9595 81.1784 28.8065C81.4845 30.3603 81.7536 31.8808 81.8631 33.464C81.8904 33.8579 82.0293 34.6674 81.8647 35.0235C81.6422 35.5054 79.9339 36.0057 79.4323 36.1895C79.1043 39.6643 78.8173 43.1429 78.5714 46.6249C78.2 52.638 77.7498 58.6451 77.2207 64.646C77.1603 65.3 77.1012 67.237 76.8707 67.7279C76.7348 68.0174 76.2846 68.0993 76.018 68.2144C74.4165 68.9049 72.8445 69.679 71.2688 70.4284C68.6146 71.6619 65.9765 72.9301 63.3545 74.2333L42.2927 84.3352C40.2328 85.3044 38.1933 86.3141 36.1272 87.2704C35.5338 87.5451 34.954 87.854 34.3513 88.107C32.0989 86.8402 29.7687 85.7127 27.4803 84.515L12.0187 76.4008L8.15012 74.377C7.63218 74.1037 6.89924 73.8625 6.49357 73.4383C6.26698 72.6982 6.25289 71.8017 6.16812 71.0276L5.64359 66.2748L3.22024 45.7115C2.49935 45.3835 1.70755 45.0665 1.03825 44.6425C0.791433 44.4861 0.639618 44.3405 0.580074 44.0447C0.400079 43.1517 0.591892 40.7217 0.670527 39.7273C1.17688 33.3367 2.63503 25.7834 6.18812 20.3875C8.14285 17.419 11.0714 15.1265 14.6704 14.8523C15.2025 14.8118 15.7727 14.7944 16.3049 14.856C16.5463 14.8837 16.8063 14.9777 17.0465 14.9777C17.316 14.9777 17.6333 14.8567 17.8931 14.7891C20.131 14.2059 22.3625 13.5991 24.5879 12.9687C25.8604 12.6181 27.1403 12.2205 28.433 11.9595C28.6071 11.1666 28.9933 10.1236 29.5517 9.52578C30.7328 9.17124 31.9389 8.90417 33.132 8.59591L38.0028 7.296C39.7285 6.84148 41.5411 6.23676 43.2604 5.85237C43.6031 5.77576 43.9443 5.99516 44.307 5.92179C45.2158 5.73827 46.1278 5.44413 47.0258 5.20576C48.168 4.90236 49.3484 4.63299 50.4702 4.25923C50.8964 4.11714 51.1727 3.64434 51.5098 3.35644C53.4372 1.70962 55.6422 0.705696 58.1691 0.57494L58.168 0.574246Z" fill="#10FF08"/>
<path d="M19.0927 74.4852C20.2317 75.0584 21.3845 75.6029 22.5161 76.1917L29.875 79.9802C31.1243 80.6228 32.5393 81.4514 33.8217 81.9714C33.8637 83.2343 33.9939 84.4929 33.9862 85.7583C33.1355 85.382 32.3086 84.9093 31.4795 84.4837C29.8348 83.6596 28.1999 82.8154 26.5749 81.9515C22.1337 79.6854 17.7078 77.3889 13.297 75.0619L9.56833 73.056C9.08927 72.7966 8.63094 72.4874 8.13575 72.2617C7.94327 71.1243 7.8459 69.9559 7.71159 68.8095L19.0927 74.4852Z" fill="#004917"/>
<path d="M75.5486 62.9254C75.6448 63.1466 75.3725 66.0428 75.3025 66.4781C72.9878 67.6512 70.6146 68.7125 68.264 69.8088L59.9509 73.7682L44.7523 81.0712C41.5072 82.6324 38.2697 84.2428 34.9948 85.7366C34.9732 84.5201 34.9368 83.3042 34.8854 82.0885L75.5347 62.9087C75.5392 62.9143 75.5456 62.919 75.5486 62.9254Z" fill="#004917"/>
<path d="M38.583 57.2662C38.7681 57.6392 38.8301 76.8226 38.9006 78.9984C38.4011 79.2738 35.0721 80.9267 34.8201 80.913L34.7933 80.7716C34.6288 76.2561 34.497 71.7395 34.3975 67.2219C34.3343 64.5316 34.3396 61.8128 34.1378 59.1299C35.5739 58.6055 37.0057 57.8046 38.4872 57.2571L38.583 57.2662Z" fill="#004917"/>
<path d="M28.5045 56.942C29.9804 57.6326 31.7438 58.4639 33.1574 59.2588C33.2433 60.1745 33.2476 61.1092 33.2791 62.0284C33.3426 64.2975 33.393 66.5672 33.4302 68.8369L33.6629 77.0383C33.7045 78.3231 33.7925 79.6092 33.8037 80.8945C32.468 80.1215 31.07 79.4788 29.7023 78.7686C29.6521 76.5511 29.4928 74.3343 29.376 72.1198L28.5045 56.942Z" fill="#004917"/>
<path d="M72.084 42.9955L72.1213 43.0271C72.2506 43.4277 71.931 47.9103 71.8855 48.7621L71.4292 58.1455C71.3347 60.0483 71.1689 61.9667 71.1736 63.8711C68.9805 64.819 66.8512 65.9607 64.6851 66.9741L58.1701 69.9876C56.721 70.6448 55.2547 71.2715 53.8188 71.9574L45.8575 75.7391C43.8764 76.6884 41.8986 77.6827 39.8868 78.5605L39.7028 64.2029C39.6885 61.7135 39.5854 59.2128 39.6181 56.7253C40.3501 56.4323 41.067 56.0891 41.7922 55.778L46.5929 53.7112C48.2562 52.9885 49.9584 52.3289 51.602 51.5628C51.7408 53.8157 51.7383 56.0985 51.7688 58.3565C52.9969 59.5634 54.344 60.6519 55.6153 61.8108L58.6351 64.5151C59.1326 64.9583 59.6642 65.546 60.2394 65.8762C60.5896 65.0253 60.8852 64.1532 61.2118 63.293C62.0581 61.0711 62.8925 58.8443 63.7148 56.6131L64.7358 53.9471C64.9549 53.3727 65.2299 52.7742 65.3306 52.1642C65.4672 51.3382 65.4012 50.4097 65.3937 49.5703C65.375 48.3054 65.3694 47.0402 65.3769 45.775C67.6185 44.863 69.832 43.8827 72.0837 42.9947L72.084 42.9955Z" fill="#004917"/>
<path d="M9.44118 47.8761C10.0802 48.145 10.6889 48.5106 11.3177 48.8068L15.8489 50.9176C18.6479 52.2124 21.4308 53.5421 24.1978 54.9066C25.2907 55.4324 26.3998 55.9164 27.485 56.4607C27.5352 57.6911 27.6536 58.9256 27.7179 60.1574C27.8675 63.3122 28.0393 66.4657 28.233 69.6182C28.3496 71.3659 28.4489 73.115 28.5305 74.8648C28.5912 75.9564 28.6872 77.0546 28.7027 78.1474C26.6305 77.2085 24.604 76.1448 22.5789 75.1051L17.6763 72.6103C15.8043 71.6406 13.9294 70.6129 11.9954 69.7777C11.7097 67.3817 11.4423 64.9838 11.1934 62.5837C11.1046 61.7932 10.9817 61.0067 10.8915 60.2162C10.4563 56.0971 9.97295 51.9839 9.44092 47.8769L9.44118 47.8761Z" fill="#004917"/>
<path d="M4.93653 45.7996C5.39992 45.9533 5.84466 46.2022 6.28442 46.4158C6.96597 46.7537 7.65701 47.0697 8.35787 47.3636C8.56741 49.5848 8.90893 51.8056 9.18097 54.0208C9.80368 59.0878 10.4361 64.1732 10.9283 69.2555C9.78882 68.7186 8.6723 68.1187 7.55485 67.5359C7.35759 66.619 7.32429 65.6089 7.21794 64.6735L6.58041 59.3524C6.33587 57.2608 6.11217 55.1629 5.84559 53.0743C5.53606 50.6495 5.18424 48.2327 4.93653 45.7996Z" fill="#004917"/>
<path d="M60.0034 51.8306C60.1302 51.8229 60.2816 51.8334 60.4023 51.8755C60.7532 51.998 60.949 52.3568 61.1122 52.6704L61.0663 52.6722L60.9902 52.6764C60.8418 52.6836 60.6917 52.6839 60.549 52.7313C60.0654 52.8928 59.6842 53.3141 59.4724 53.7735C59.2354 54.2879 59.1128 55.0375 59.3221 55.577C59.4134 55.8121 59.5803 56.017 59.8093 56.1203C59.8829 56.1534 59.9427 56.1831 60.0088 56.2317L59.9725 56.3203C59.8753 56.3594 59.7769 56.3992 59.6765 56.4293C59.3783 56.5189 59.0704 56.5061 58.7988 56.3425C58.4659 56.1419 58.2715 55.7759 58.1886 55.401C58.0068 54.5795 58.2337 53.5719 58.665 52.8646C58.9831 52.343 59.4062 51.9732 60.0034 51.8306Z" fill="#004917"/>
<path fill-rule="evenodd" clip-rule="evenodd" d="M64.3834 41.638C64.499 41.8888 64.4476 44.6257 64.4462 45.0955L64.4308 49.6093C64.4347 50.369 64.534 51.2059 64.4293 51.9529C64.327 52.6828 63.6459 54.1076 63.3614 54.8731C62.1985 58.0031 60.9631 61.1039 59.8672 64.2594C58.218 62.7464 56.5434 61.2626 54.8442 59.8081C54.1268 59.1882 53.4382 58.5262 52.7342 57.8901C52.6558 55.658 52.591 53.4254 52.5399 51.1924C52.4978 49.7425 52.3925 48.2757 52.4143 46.8263C52.8415 46.6741 53.2675 46.5095 53.7099 46.409C53.7195 46.8196 53.6371 47.2836 53.7714 47.6784C53.9203 48.1155 54.3115 48.3116 54.6965 48.4923C55.4845 48.383 57.4152 47.3993 58.2504 47.042C59.0112 46.7165 62.1525 45.5444 62.6055 45.0774C63.3902 44.2682 63.3386 43.1095 63.3534 42.0642C63.6922 41.9327 64.0197 41.7867 64.3472 41.6288L64.3834 41.638ZM61.0097 50.9887C60.5821 50.7701 60.1198 50.7519 59.6528 50.7923C58.6724 51.1226 58.0494 51.7492 57.5858 52.6814C57.1113 53.6355 56.9561 54.9008 57.2986 55.9234C57.4952 56.5105 57.8545 57.0439 58.4135 57.3256C58.8169 57.5287 59.3027 57.5803 59.7421 57.4864C60.6751 57.177 61.3101 56.6333 61.7569 55.7365C62.2441 54.7587 62.4485 53.4074 62.1028 52.3514C61.9169 51.7831 61.5431 51.2616 61.0097 50.9887Z" fill="#004917"/>
<path d="M77.1482 40.8476C77.1997 40.8508 77.1691 40.8435 77.2313 40.8942C77.2343 41.6796 77.1198 42.4999 77.0689 43.2867L76.6543 49.1449L76.097 56.514C75.97 58.2694 75.8801 60.0328 75.694 61.7826C74.5291 62.2765 73.3939 62.8254 72.2611 63.3903L72.179 63.4034C71.9869 63.0912 73.1063 44.5371 73.1202 42.5003C74.4731 41.9754 75.816 41.4246 77.1484 40.8479L77.1482 40.8476Z" fill="#004917"/>
<path d="M2.43608 40.0261C4.66125 41.0229 6.84048 42.1407 9.04996 43.1741L28.2106 51.9506C29.8489 52.702 31.5194 53.4255 33.1116 54.2744C33.0996 55.4632 33.2307 56.8559 33.1278 58.013L33.0452 58.042C31.2348 57.1343 29.3989 56.2831 27.5748 55.4047C22.9657 53.1663 18.3377 50.9687 13.691 48.8121C10.9086 47.5135 8.15236 46.1766 5.39312 44.8285C4.35749 44.3227 3.28129 43.8829 2.26338 43.3435C2.25816 42.2373 2.35657 41.1291 2.43634 40.0267L2.43608 40.0261Z" fill="#004917"/>
<path d="M51.3423 47.2554C51.5282 47.5111 51.5124 49.995 51.534 50.5074C46.6639 52.5374 41.8138 54.6167 36.9841 56.7446C36.0664 57.1466 35.1641 57.5829 34.2448 57.9805L34.1421 57.9994C34.0485 57.8216 34.0756 54.7295 34.0729 54.2349C36.1274 53.4252 38.1742 52.5957 40.2135 51.7464C43.9137 50.232 47.6195 48.7103 51.3423 47.2554Z" fill="#004917"/>
<path d="M53.5648 40.2097C53.6677 40.6938 53.6231 41.2916 53.6376 41.7896L53.7308 45.1781C52.8183 45.6248 51.8236 45.9606 50.8775 46.3327L46.1147 48.2405L39.4637 50.939C37.7433 51.6502 36.0219 52.4118 34.2726 53.0445L34.1064 53.0746C34.0014 52.9554 34.0633 48.2064 34.0667 47.6996C36.0005 46.8533 38.005 46.1385 39.9736 45.3773C44.4846 43.6329 49.0214 41.9523 53.5174 40.1691L53.5177 40.1689L53.5648 40.2097Z" fill="#004917"/>
<path d="M3.08262 34.6428C3.96419 34.9642 4.83125 35.3587 5.69554 35.726L10.6516 37.8665L26.0988 44.6651C28.4291 45.6987 30.7351 46.8056 33.09 47.7804C33.0827 49.5292 33.1086 51.2807 33.0859 53.0288C32.9822 53.0628 32.8069 52.9658 32.7006 52.9256C32.1568 52.7004 31.6299 52.4189 31.093 52.1754C29.3089 51.3613 27.5322 50.5302 25.7632 49.6827C24.368 49.0183 22.9346 48.4416 21.5282 47.8031C20.711 47.4321 19.9207 47.0029 19.1058 46.6271C13.5826 44.0789 8.01144 41.6359 2.55731 38.934C2.6189 37.5237 2.79809 36.0262 3.08262 34.6428Z" fill="#004917"/>
<path d="M55.5968 38.3301C55.6943 38.312 55.6504 38.3019 55.7288 38.3567C55.839 38.8069 55.7798 39.3806 55.7857 39.8481L55.8199 42.8904C55.8272 43.5879 55.7997 44.3094 55.9054 44.9995C56.4515 45.5589 57.3855 45.7751 58.0982 46.0197C57.4762 46.3169 56.8148 46.5543 56.1821 46.8313C55.7062 47.044 55.2257 47.2455 54.7407 47.4358C54.7 46.7646 54.7199 46.0791 54.7122 45.4061C54.699 44.1145 54.6763 42.8229 54.645 41.5316C54.6266 40.829 54.6876 39.9609 54.479 39.2951L54.3384 38.8559C54.7441 38.6513 55.1738 38.4932 55.5968 38.3301Z" fill="#004917"/>
<path d="M15.1944 16.7234C18.8345 16.504 22.4249 18.7427 25.1617 20.9817C30.9319 25.703 34.9458 33.3858 36.8541 40.5794C37.2457 42.0556 37.6314 43.5712 37.7928 45.0944C37.0992 45.3897 36.3847 45.6341 35.6815 45.9042C35.058 46.1437 34.4433 46.4095 33.8106 46.6229C32.9954 42.0034 31.6801 37.3438 29.6547 33.1177C29.2095 32.1888 28.695 31.2953 28.1908 30.3988C27.7585 29.6738 27.3047 28.9629 26.8297 28.2659C24.7432 25.202 21.058 21.5567 17.336 20.8918C15.4086 20.5475 13.521 20.9529 11.921 22.1123C8.92272 24.2856 7.50642 28.4261 6.78348 31.9495C6.58644 32.9104 6.46307 33.882 6.30784 34.8501C5.27741 34.5131 4.26001 34.0339 3.27231 33.581C4.02388 29.8518 4.99851 26.1882 6.82415 22.8407C7.31436 21.9416 7.83328 21.0755 8.49917 20.2975C10.3743 18.1064 12.3018 16.928 15.1949 16.7234H15.1944Z" fill="#004917"/>
<path d="M15.3895 21.7847C17.0492 21.5052 19.2903 22.4617 20.667 23.3633C25.1592 26.3048 28.5149 32.1362 30.3165 37.1491C31.4123 40.1981 32.1508 43.3283 32.8251 46.4953C32.1624 46.2773 31.5211 45.9769 30.8809 45.6989C29.6682 45.1676 28.4588 44.6277 27.2534 44.0792L13.1181 37.8171C11.7966 37.2216 10.4596 36.662 9.13464 36.074C8.51398 35.7986 7.87825 35.539 7.27713 35.2222C7.29487 34.5184 7.45384 33.7764 7.57724 33.0842C8.10291 30.1389 8.97561 27.095 10.7744 24.6724C11.9328 23.1122 13.4704 22.0487 15.3895 21.7847Z" fill="#004917"/>
<path d="M59.8855 34.9751C60.1739 34.9461 60.4433 34.9379 60.7271 35.0098C61.4491 35.1929 61.9913 35.6778 62.3738 36.3101L62.3779 43.6685C61.6021 44.3484 60.7762 44.8681 59.8827 45.3664L59.3236 45.2785C58.4589 45.0855 57.62 44.8728 56.8139 44.4881C56.8094 42.9515 56.7708 41.4116 56.7424 39.875C56.7312 39.268 56.6317 38.4441 56.7385 37.8678C56.7928 37.5744 56.9507 37.2842 57.1107 37.0364C57.7697 36.0158 58.6958 35.2257 59.8855 34.9751Z" fill="#004917"/>
<path d="M52.7692 33.1569L52.8119 33.1676C53.0617 33.577 53.4102 38.2857 53.4459 39.1121C52.8875 39.4083 52.2486 39.5933 51.6568 39.8157L48.839 40.9004C45.4741 42.2101 42.1022 43.5 38.723 44.7702L38.6501 44.309C38.3695 42.441 37.8635 40.6016 37.3771 38.7808C38.5693 38.2712 39.8147 37.8692 41.0276 37.4126L48.3698 34.711C49.8343 34.1887 51.3118 33.6982 52.7695 33.1567L52.7692 33.1569Z" fill="#004917"/>
<path d="M77.5507 36.3035C77.6382 36.4792 77.3514 39.279 77.3039 39.6959C76.1455 40.1525 75.0038 40.6613 73.8563 41.1454L65.4835 44.6905C65.2771 44.4352 65.3881 41.7167 65.3893 41.2325C66.6006 40.7002 67.8443 40.2313 69.069 39.7309L77.5198 36.291L77.5507 36.3035Z" fill="#004917"/>
<path d="M79.4463 29.7509C79.5306 29.7345 79.4838 29.7348 79.5861 29.7635C79.9022 30.39 80.1626 33.3263 80.1878 34.1439C79.5545 34.3374 78.9365 34.6254 78.3177 34.8642C76.4875 35.571 74.6893 36.3364 72.8762 37.0858C69.9033 38.3142 66.8793 39.4345 63.9271 40.7122L63.3158 40.9943C63.2413 39.2709 63.288 37.5336 63.2934 35.8081C66.4456 34.5963 69.6297 33.4659 72.7889 32.2742L76.7094 30.7868C77.6193 30.4367 78.5237 30.0647 79.4466 29.7507L79.4463 29.7509Z" fill="#004917"/>
<path d="M50.0358 24.0536L50.113 24.0805C50.3759 24.3915 50.528 24.8998 50.6813 25.2798C51.5893 27.5283 52.2039 29.7817 52.6405 32.171L41.7835 36.0808C40.1949 36.6519 38.6177 37.2547 37.0523 37.8893L36.7978 37.1127C36.2289 35.4555 35.5338 33.7826 34.7588 32.2152C34.337 31.3619 33.8438 30.54 33.4413 29.6798C34.4728 29.2503 35.5713 28.9227 36.631 28.5705C38.1041 28.0678 39.5811 27.5767 41.0618 27.0972C44.0592 26.1004 47.0508 25.0859 50.0363 24.0533L50.0358 24.0536Z" fill="#004917"/>
<path d="M43.562 7.56671C44.2126 7.63918 44.9376 7.92551 45.5623 8.12753C48.9252 9.2157 51.9702 10.9905 54.4579 13.5553C55.3865 14.5125 56.1849 15.5502 56.9444 16.6497C60.5798 21.9121 62.0938 28.1538 62.0552 34.534C61.3198 34.188 60.59 33.9273 59.7707 34.0354C57.8369 34.2909 56.8634 35.8988 55.7857 37.3392C55.2946 37.4755 54.8152 37.6528 54.3343 37.8213C54.2757 37.1319 54.212 36.4427 54.1434 35.7542C53.9811 34.6335 53.8816 33.5073 53.6911 32.3895C52.983 28.2359 51.636 24.0487 49.2902 20.5414C45.1051 14.2849 40.1182 11.9103 32.9929 10.5361C34.1813 10.0755 35.8635 9.73661 37.1205 9.39873C39.2716 8.80282 41.4189 8.19225 43.562 7.56671Z" fill="#004917"/>
<path d="M73.7412 25.0097C74.019 25.2527 74.9411 29.6449 75.0652 30.3748C74.05 30.6985 73.0431 31.1124 72.0436 31.486C69.2928 32.5139 66.5635 33.6156 63.7902 34.5795C63.5193 34.6732 63.2465 34.7615 62.972 34.8441C62.9556 32.8662 62.8316 30.9301 62.6639 28.96C64.2636 28.2933 65.9359 27.7551 67.5711 27.1837L73.6646 25.0142L73.6643 25.0144L73.7412 25.0097Z" fill="#004917"/>
<path d="M58.1819 2.42781C61.17 2.16931 64.1573 3.59737 66.5061 5.37493C70.5721 8.45243 73.7192 12.9955 75.8391 17.6395C76.6028 19.347 77.2645 21.0945 77.8235 22.8822C78.4426 24.8049 78.9941 26.7569 79.2852 28.7621C78.1798 29.2321 77.0263 29.6999 75.8778 30.0477C75.7614 29.5876 75.7001 29.0977 75.6139 28.6296C75.3217 26.6219 74.5954 24.1872 73.9145 22.2576C73.5161 21.1279 73.1198 20.0002 72.6451 18.9005C72.5421 18.6589 72.4361 18.4183 72.3272 18.1794C72.2181 17.9404 72.1063 17.703 71.9913 17.4672C71.8763 17.2312 71.7586 16.9967 71.6377 16.7639C71.5168 16.5311 71.3931 16.2996 71.2663 16.07C71.1395 15.8405 71.0101 15.6124 70.8776 15.3863C70.7452 15.16 70.6099 14.9354 70.4718 14.7128C70.3336 14.4902 70.1925 14.2692 70.0489 14.0503C69.9053 13.8311 69.7589 13.614 69.6095 13.3987C69.4605 13.1836 69.3085 12.9705 69.154 12.7592C68.9994 12.5479 68.8422 12.3386 68.6825 12.1315C68.5227 11.9243 68.36 11.7192 68.195 11.5163C68.03 11.3133 67.8625 11.1127 67.6926 10.9144C67.5226 10.7158 67.3502 10.5195 67.175 10.3256C67 10.1317 66.8225 9.94016 66.6427 9.75065C66.463 9.56134 66.2806 9.37424 66.0961 9.18957C65.9115 9.0049 65.7248 8.8227 65.5355 8.64312C62.9896 6.22241 59.1421 4.06208 55.6024 3.9385C54.8338 3.91166 54.0776 4.16617 53.3002 4.19394C54.711 3.09401 56.4365 2.59054 58.1814 2.42807L58.1819 2.42781Z" fill="#004917"/>
<path d="M44.4118 16.525C44.4327 16.5268 44.4542 16.5249 44.4744 16.5307C44.795 16.6254 45.2379 17.1689 45.4758 17.4102C47.2228 19.1813 48.6086 20.9476 49.7254 23.201C48.9617 23.3755 48.2072 23.6619 47.462 23.9058C46.2664 24.2972 45.071 24.6825 43.8806 25.0908L36.4091 27.5856C35.8867 27.7624 33.2563 28.7365 32.952 28.7182C32.8682 28.7131 32.849 28.6466 32.8004 28.5843C31.2218 25.9873 29.3121 23.644 27.1944 21.4848C29.5117 20.9129 31.8159 20.219 34.1115 19.5618C37.5564 18.5902 40.9899 17.5782 44.4116 16.5255L44.4118 16.525Z" fill="#004917"/>
<path d="M70.2486 16.4052C70.472 16.6265 70.6406 17.0183 70.7896 17.2976C71.9303 19.4364 72.7582 21.7446 73.5011 24.0515C71.7619 24.6469 70.0301 25.2642 68.3059 25.9034C66.538 26.5409 64.7666 27.1571 63.0062 27.818L62.4984 27.9798C62.1132 25.057 61.0167 22.1885 59.7838 19.5401C63.2224 18.4494 66.6744 17.4046 70.1397 16.4057C70.1695 16.3979 70.2173 16.4045 70.2486 16.4052Z" fill="#004917"/>
<path d="M35.1379 12.0366C35.4968 12.0109 36.0787 12.2531 36.4305 12.3521C39.0476 13.0876 41.4294 14.1506 43.6361 15.7738C43.082 15.9795 42.4953 16.1135 41.9271 16.2771L38.7464 17.1995C35.0595 18.259 31.3665 19.2961 27.6675 20.3111L26.2887 20.6912C26.0344 20.4596 25.7753 20.2336 25.5114 20.0133C25.2476 19.7932 24.979 19.5789 24.7061 19.3704C24.4332 19.1621 24.1558 18.96 23.8742 18.7638C23.5927 18.5678 23.3072 18.3776 23.0177 18.1941C22.7282 18.0106 22.4345 17.8334 22.1374 17.6628C21.8402 17.4922 21.5394 17.3281 21.2353 17.1708C20.9313 17.0134 20.6241 16.8627 20.3134 16.719C20.0027 16.575 19.6893 16.4383 19.3729 16.3082C21.4681 15.706 23.5944 15.1903 25.7014 14.6305L35.1379 12.0366Z" fill="#004917"/>
<path d="M64.5065 8.95373C65.3906 9.2094 69.1999 14.47 69.8051 15.5265C68.0302 15.999 66.2794 16.5666 64.5183 17.0889C62.822 17.5923 61.1219 18.0345 59.4703 18.6827C59.3088 18.6846 59.1554 18.3138 59.0786 18.1823C57.7643 15.9294 56.1492 13.7219 54.1917 12.0054C55.1905 11.7282 56.1772 11.4084 57.1753 11.129C59.6255 10.444 62.0974 9.77969 64.5065 8.95373Z" fill="#004917"/>
<path d="M30.9455 11.2692C31.8138 11.3657 32.3783 11.4545 33.2418 11.6054C33.0066 11.6807 18.9249 15.7509 18.6901 15.8206C17.6359 15.8206 17.6359 15.419 14.7368 15.8206C18.0312 14.6158 29.7958 11.5861 30.9455 11.2692Z" fill="#004917"/>
<path d="M55.6436 4.9783C55.6693 4.9746 55.6946 4.97056 55.7203 4.96732C57.1983 4.78503 60.3472 6.16892 61.6987 6.92798C62.3669 7.30033 62.9996 7.72726 63.5966 8.20885C60.4901 9.23683 57.3186 10.0315 54.1933 10.9973L53.3509 11.2425C51.0793 9.43742 48.0322 8.0999 45.3093 7.11936C46.1416 6.94371 47.7788 6.39452 48.6038 6.18231L52.6889 4.84365L55.6436 4.9783Z" fill="#004917"/>
</svg>
