<svg width="20" height="20" viewBox="0 0 20 20" fill="none" xmlns="http://www.w3.org/2000/svg">
<g clip-path="url(#clip0_576_76466)">
<path d="M5.83342 13.3333C6.29175 13.3333 6.66675 13.7083 6.66675 14.1667C6.66675 15.0833 5.91675 15.8333 5.00008 15.8333C4.85841 15.8333 4.72508 15.8167 4.58341 15.7917C4.84175 15.3333 5.00008 14.7833 5.00008 14.1667C5.00008 13.7083 5.37508 13.3333 5.83342 13.3333ZM15.5584 2.5C15.3417 2.5 15.1334 2.58333 14.9667 2.74167L7.50008 10.2083L9.79175 12.5L17.2584 5.03333C17.5834 4.70833 17.5834 4.18333 17.2584 3.85833L16.1417 2.74167C15.9751 2.575 15.7667 2.5 15.5584 2.5ZM5.83342 11.6667C4.45008 11.6667 3.33341 12.7833 3.33341 14.1667C3.33341 15.2583 2.36675 15.8333 1.66675 15.8333C2.43341 16.85 3.74175 17.5 5.00008 17.5C6.84175 17.5 8.33342 16.0083 8.33342 14.1667C8.33342 12.7833 7.21675 11.6667 5.83342 11.6667Z" fill="#07CB38"/>
</g>
<defs>
<clipPath id="clip0_576_76466">
<rect width="20" height="20" fill="white"/>
</clipPath>
</defs>
</svg>
