<svg width="130" height="129" viewBox="0 0 130 129" fill="none" xmlns="http://www.w3.org/2000/svg">
<g clip-path="url(#clip0_3648_12585)">
<path d="M65 -53L67.1541 12.5549L80.3657 -52.5015L71.4388 12.8337L95.563 -51.0114L75.653 13.3882L110.426 -48.5461L79.7504 14.2124L124.79 -45.1326L83.6862 15.2971L138.5 -40.8083L87.4173 16.6307L151.404 -35.6205L90.9028 18.1983L163.362 -29.6262L94.1045 19.9829L174.242 -22.8909L96.9873 21.9649L183.926 -15.4885L99.5197 24.1226L192.306 -7.5L101.674 26.4323L199.291 0.986965L103.426 28.8688L204.805 9.87946L104.758 31.4053L208.788 19.08L105.653 34.0141L211.195 28.4879L106.104 36.6665L212 38L106.104 39.3335L211.195 47.5121L105.653 41.9859L208.788 56.92L104.758 44.5947L204.805 66.1205L103.426 47.1312L199.291 75.013L101.674 49.5677L192.306 83.5L99.5197 51.8774L183.926 91.4885L96.9873 54.0351L174.242 98.8909L94.1045 56.0171L163.362 105.626L90.9028 57.8017L151.404 111.621L87.4173 59.3693L138.5 116.808L83.6862 60.7029L124.79 121.133L79.7504 61.7876L110.426 124.546L75.653 62.6118L95.563 127.011L71.4388 63.1663L80.3657 128.501L67.1541 63.4451L65 129L62.8459 63.4451L49.6343 128.501L58.5612 63.1663L34.437 127.011L54.347 62.6118L19.5745 124.546L50.2496 61.7876L5.20972 121.133L46.3138 60.7029L-8.5 116.808L42.5827 59.3693L-21.4044 111.621L39.0972 57.8017L-33.3622 105.626L35.8955 56.0171L-44.2423 98.8909L33.0127 54.0351L-53.9255 91.4885L30.4803 51.8774L-62.3057 83.5L28.3262 49.5677L-69.2912 75.013L26.5738 47.1312L-74.8053 66.1205L25.2425 44.5947L-78.7877 56.92L24.3467 41.9859L-81.1947 47.5121L23.8964 39.3335L-82 38L23.8964 36.6665L-81.1947 28.4879L24.3467 34.0141L-78.7877 19.08L25.2425 31.4053L-74.8053 9.87946L26.5738 28.8688L-69.2912 0.986965L28.3262 26.4323L-62.3057 -7.5L30.4803 24.1226L-53.9255 -15.4885L33.0127 21.9649L-44.2423 -22.8909L35.8955 19.9829L-33.3622 -29.6262L39.0972 18.1983L-21.4044 -35.6205L42.5827 16.6307L-8.5 -40.8083L46.3138 15.2971L5.20972 -45.1326L50.2496 14.2124L19.5745 -48.5461L54.347 13.3882L34.437 -51.0114L58.5612 12.8337L49.6343 -52.5015L62.8459 12.5549L65 -53Z" fill="url(#paint0_radial_3648_12585)" fill-opacity="0.15"/>
</g>
<defs>
<radialGradient id="paint0_radial_3648_12585" cx="0" cy="0" r="1" gradientUnits="userSpaceOnUse" gradientTransform="translate(65 34.5) rotate(90) scale(94.5 138.022)">
<stop offset="0.209265" stop-color="#032C04" stop-opacity="0"/>
<stop offset="0.418793" stop-color="#07CB38"/>
<stop offset="0.671973" stop-color="#032C04" stop-opacity="0"/>
</radialGradient>
<clipPath id="clip0_3648_12585">
<path d="M0 16C0 7.16344 7.16344 0 16 0H114C122.837 0 130 7.16344 130 16V129H0V16Z" fill="white"/>
</clipPath>
</defs>
</svg>
