<svg width="17" height="16" viewBox="0 0 17 16" fill="none" xmlns="http://www.w3.org/2000/svg">
<ellipse cx="8.49984" cy="7.99984" rx="7.33333" ry="7.33333" fill="#082620"/>
<path d="M16.5 8C16.5 9.05052 16.2932 10.0908 15.8912 11.0613C15.4892 12.0319 14.8997 12.914 14.1568 13.6568C13.414 14.3997 12.5319 14.9892 11.5613 15.3912C10.5908 15.7932 9.55051 16 8.5 16V14.2222C9.31711 14.2222 10.1265 14.0615 10.8814 13.7488C11.6362 13.4361 12.3221 12.9776 12.8999 12.3999C13.4776 11.8221 13.9361 11.1362 14.2488 10.3814C14.5615 9.62645 14.7222 8.81711 14.7222 8H16.5Z" fill="#07CB38"/>
<path d="M8.5 16C7.44948 16 6.40921 15.7932 5.43866 15.3912C4.46805 14.9892 3.58604 14.3997 2.84317 13.6568C2.1003 12.914 1.51083 12.0319 1.1088 11.0613C0.706804 10.0908 0.500001 9.05051 0.500001 8L2.27778 8C2.27778 8.81711 2.43846 9.62645 2.75116 10.3814C3.06385 11.1362 3.52235 11.8221 4.10012 12.3999C4.67788 12.9776 5.36376 13.4361 6.11863 13.7488C6.87355 14.0615 7.68289 14.2222 8.5 14.2222L8.5 16Z" fill="#F97C39"/>
<path d="M0.5 8C0.5 6.94948 0.706803 5.90921 1.1088 4.93866C1.51083 3.96805 2.1003 3.08604 2.84317 2.34317C3.58604 1.6003 4.46805 1.01083 5.43866 0.608797C6.40922 0.206804 7.44949 9.53674e-07 8.5 9.53674e-07V1.77778C7.68289 1.77778 6.87355 1.93846 6.11863 2.25116C5.36376 2.56385 4.67788 3.02236 4.10012 3.60012C3.52236 4.17788 3.06385 4.86376 2.75116 5.61863C2.43846 6.37355 2.27778 7.18289 2.27778 8H0.5Z" fill="#07CB38"/>
<path d="M8.5 9.53674e-07C9.55052 9.99594e-07 10.5908 0.206804 11.5613 0.608797C12.5319 1.01083 13.414 1.6003 14.1568 2.34317C14.8997 3.08604 15.4892 3.96805 15.8912 4.93866C16.2932 5.90922 16.5 6.94949 16.5 8L14.7222 8C14.7222 7.18289 14.5615 6.37355 14.2488 5.61863C13.9361 4.86376 13.4776 4.17788 12.8999 3.60012C12.3221 3.02236 11.6362 2.56385 10.8814 2.25116C10.1265 1.93846 9.31711 1.77778 8.5 1.77778L8.5 9.53674e-07Z" fill="#F97C39"/>
<g filter="url(#filter0_d_3478_4614)">
<path d="M4.60451 7.66309H4.3374L6.08223 11.3307H6.34934L4.60451 7.66309Z" fill="black"/>
<path d="M4.60451 7.66309H4.3374L6.08223 11.3307H6.34934L4.60451 7.66309Z" fill="white" fill-opacity="0.4"/>
<path fill-rule="evenodd" clip-rule="evenodd" d="M8.27351 6.28906H7.83467L6.08984 11.327H6.52868L8.27351 6.28906Z" fill="black"/>
<path fill-rule="evenodd" clip-rule="evenodd" d="M8.27351 6.28906H7.83467L6.08984 11.327H6.52868L8.27351 6.28906Z" fill="white" fill-opacity="0.6"/>
<path fill-rule="evenodd" clip-rule="evenodd" d="M7.81982 6.28125H8.55488L10.2997 11.3337H9.56465L7.81982 6.28125Z" fill="black"/>
<path fill-rule="evenodd" clip-rule="evenodd" d="M7.81982 6.28125H8.55488L10.2997 11.3337H9.56465L7.81982 6.28125Z" fill="white" fill-opacity="0.9"/>
<path fill-rule="evenodd" clip-rule="evenodd" d="M12.5003 5.12646H11.2971L9.55225 11.3329H10.7555L12.5003 5.12646Z" fill="white"/>
</g>
<defs>
<filter id="filter0_d_3478_4614" x="4.3374" y="5.12646" width="8.16309" height="8.20703" filterUnits="userSpaceOnUse" color-interpolation-filters="sRGB">
<feFlood flood-opacity="0" result="BackgroundImageFix"/>
<feColorMatrix in="SourceAlpha" type="matrix" values="0 0 0 0 0 0 0 0 0 0 0 0 0 0 0 0 0 0 127 0" result="hardAlpha"/>
<feOffset dy="2"/>
<feComposite in2="hardAlpha" operator="out"/>
<feColorMatrix type="matrix" values="0 0 0 0 0 0 0 0 0 0 0 0 0 0 0 0 0 0 0.25 0"/>
<feBlend mode="normal" in2="BackgroundImageFix" result="effect1_dropShadow_3478_4614"/>
<feBlend mode="normal" in="SourceGraphic" in2="effect1_dropShadow_3478_4614" result="shape"/>
</filter>
</defs>
</svg>
